<svg xmlns="http://www.w3.org/2000/svg" xmlns:xlink="http://www.w3.org/1999/xlink" width="1024" zoomAndPan="magnify" viewBox="0 0 768 767.999994" height="1024" preserveAspectRatio="xMidYMid meet" version="1.0"><defs><clipPath id="64c10c6a8b"><path d="M 76.800781 76.800781 L 675.300781 76.800781 L 675.300781 675.300781 L 76.800781 675.300781 Z M 76.800781 76.800781 " clip-rule="nonzero"/></clipPath><clipPath id="b32a10611b"><path d="M 264 110 L 462 110 L 462 692 L 264 692 Z M 264 110 " clip-rule="nonzero"/></clipPath><clipPath id="df33e2c493"><path d="M 171.453125 189.800781 L 457.707031 110.632812 L 596.453125 612.300781 L 310.199219 691.46875 Z M 171.453125 189.800781 " clip-rule="nonzero"/></clipPath><clipPath id="16c6b06345"><path d="M 171.453125 189.800781 L 457.707031 110.632812 L 596.453125 612.300781 L 310.199219 691.46875 Z M 171.453125 189.800781 " clip-rule="nonzero"/></clipPath><clipPath id="2274fd341a"><path d="M 171.453125 189.800781 L 457.707031 110.632812 L 596.453125 612.300781 L 310.199219 691.46875 Z M 171.453125 189.800781 " clip-rule="nonzero"/></clipPath><clipPath id="91b0aeb59c"><path d="M 310 110 L 462 110 L 462 692 L 310 692 Z M 310 110 " clip-rule="nonzero"/></clipPath><clipPath id="e7616e6266"><path d="M 171.453125 189.800781 L 457.707031 110.632812 L 596.453125 612.300781 L 310.199219 691.46875 Z M 171.453125 189.800781 " clip-rule="nonzero"/></clipPath><clipPath id="ac35675aa7"><path d="M 171.453125 189.800781 L 457.707031 110.632812 L 596.453125 612.300781 L 310.199219 691.46875 Z M 171.453125 189.800781 " clip-rule="nonzero"/></clipPath><clipPath id="5f77691ca4"><path d="M 171.453125 189.800781 L 457.707031 110.632812 L 596.453125 612.300781 L 310.199219 691.46875 Z M 171.453125 189.800781 " clip-rule="nonzero"/></clipPath></defs><path fill="#8cf193" d="M 133.226562 427.300781 C 133.226562 459.550781 150.246094 485.679688 171.171875 485.679688 C 188.195312 485.679688 202.542969 468.539062 207.398438 444.898438 C 205.523438 452.089844 202.730469 458.402344 199.175781 463.261719 C 201.546875 458.863281 203.496094 453.773438 204.875 448.226562 C 205.179688 447.195312 205.449219 446.085938 205.640625 445.015625 C 206.863281 439.277344 207.515625 433.078125 207.515625 426.574219 C 207.515625 424.050781 207.398438 421.527344 207.207031 419.078125 C 207.054688 417.011719 206.824219 415.0625 206.519531 413.109375 C 205.332031 404.960938 203.039062 397.542969 199.941406 391.34375 C 199.519531 390.503906 199.097656 389.699219 198.640625 388.855469 C 197.183594 386.292969 195.578125 383.960938 193.855469 381.894531 C 193.742188 381.78125 193.550781 381.628906 193.4375 381.472656 C 189.765625 378.566406 185.746094 376.960938 181.5 376.960938 C 165.894531 376.960938 153.230469 398.6875 153.230469 425.503906 C 153.230469 452.320312 165.894531 474.050781 181.5 474.050781 C 184.867188 474.050781 188.042969 473.054688 190.988281 471.21875 C 192.097656 470.566406 193.855469 471.332031 193.09375 472.136719 C 188.195312 477.644531 182.226562 480.898438 175.917969 480.898438 C 158.433594 480.898438 144.28125 456.566406 144.28125 426.613281 C 144.28125 396.660156 158.433594 372.332031 175.917969 372.332031 C 182.496094 372.332031 188.539062 375.773438 193.589844 381.628906 C 193.703125 381.703125 193.742188 381.78125 193.820312 381.855469 C 195.347656 383.15625 196.804688 384.648438 198.179688 386.332031 C 191.332031 375.660156 181.769531 369.042969 171.171875 369.042969 C 150.246094 368.964844 133.226562 395.054688 133.226562 427.300781 Z M 163.484375 430.210938 L 163.445312 430.058594 C 163.214844 429.484375 163.101562 428.871094 162.949219 428.183594 C 162.910156 427.953125 162.910156 427.761719 162.832031 427.570312 C 162.71875 426.921875 162.679688 426.269531 162.679688 425.582031 C 162.679688 423.785156 163.023438 422.101562 163.597656 420.609375 C 163.789062 420.109375 163.980469 419.652344 164.25 419.191406 C 165.816406 416.363281 168.417969 414.488281 171.363281 414.488281 C 176.109375 414.488281 179.972656 419.460938 179.972656 425.621094 C 179.972656 431.738281 176.070312 436.714844 171.363281 436.714844 C 166.582031 436.332031 164.441406 433.078125 163.484375 430.210938 Z M 183.414062 468.921875 C 177.027344 468.921875 171.363281 461.921875 167.84375 451.171875 C 167.613281 450.40625 169.144531 449.910156 170.0625 450.445312 C 171.898438 451.480469 173.699219 452.128906 175.226562 452.589844 C 176.296875 453.007812 177.371094 453.238281 178.515625 453.238281 C 186.894531 453.238281 193.703125 441.074219 193.703125 426.078125 C 193.703125 411.082031 186.894531 398.917969 178.515625 398.917969 C 176.835938 398.917969 175.152344 399.414062 173.699219 400.371094 C 171.441406 401.710938 167.652344 400.488281 168.265625 398.648438 C 171.785156 388.550781 177.253906 382.046875 183.453125 382.046875 C 192.632812 382.046875 200.324219 396.429688 202.273438 415.710938 C 202.273438 415.710938 202.273438 415.710938 202.273438 415.75 C 202.3125 416.054688 202.386719 416.398438 202.386719 416.667969 C 202.65625 419.5 202.769531 422.445312 202.769531 425.464844 C 202.730469 449.453125 194.125 468.921875 183.414062 468.921875 Z M 183.414062 468.921875 " fill-opacity="1" fill-rule="nonzero"/><path fill="#8cf193" d="M 333.027344 492.527344 C 333.027344 501.019531 334.402344 509.011719 336.890625 515.976562 C 342.320312 531.355469 352.917969 541.796875 365.082031 541.796875 C 376.75 541.796875 386.886719 532.308594 392.511719 518.042969 C 393.8125 514.714844 394.882812 511.15625 395.648438 507.367188 C 394.652344 511.269531 393.3125 514.828125 391.707031 517.964844 C 391.476562 517.925781 391.25 517.925781 391.019531 517.925781 C 392.011719 515.515625 392.855469 512.878906 393.542969 510.121094 C 393.773438 509.203125 394.003906 508.324219 394.195312 507.40625 C 395.226562 502.585938 395.800781 497.347656 395.800781 491.835938 C 395.800781 489.695312 395.722656 487.554688 395.570312 485.523438 C 395.457031 483.804688 395.265625 482.121094 394.996094 480.476562 C 393.964844 473.589844 392.050781 467.316406 389.410156 462.113281 C 389.066406 461.386719 388.683594 460.738281 388.300781 460.046875 C 387.078125 457.867188 385.703125 455.917969 384.285156 454.15625 C 384.171875 454.042969 384.054688 453.925781 383.902344 453.773438 C 380.84375 451.289062 377.4375 449.949219 373.804688 449.949219 C 360.644531 449.949219 349.933594 468.3125 349.933594 490.917969 C 349.933594 500.558594 351.882812 509.433594 355.097656 516.433594 C 359.460938 525.882812 366.230469 531.925781 373.804688 531.925781 C 376.636719 531.925781 379.3125 531.085938 381.835938 529.515625 C 382.753906 528.945312 384.246094 529.632812 383.636719 530.28125 C 379.464844 534.910156 374.453125 537.664062 369.136719 537.664062 C 359.574219 537.664062 351.195312 529.058594 346.492188 516.128906 C 343.929688 509.089844 342.4375 500.75 342.4375 491.800781 C 342.4375 466.511719 354.371094 445.96875 369.136719 445.96875 C 374.683594 445.96875 379.808594 448.878906 384.054688 453.773438 C 384.132812 453.851562 384.171875 453.925781 384.246094 453.964844 C 385.511719 455.074219 386.773438 456.300781 387.921875 457.753906 C 382.144531 448.726562 374.070312 443.140625 365.121094 443.140625 C 347.371094 443.292969 333.027344 465.328125 333.027344 492.527344 Z M 358.578125 494.972656 L 358.542969 494.859375 C 358.351562 494.363281 358.234375 493.828125 358.121094 493.253906 C 358.082031 493.101562 358.082031 492.910156 358.042969 492.753906 C 357.929688 492.179688 357.890625 491.644531 357.890625 491.070312 C 357.890625 489.542969 358.195312 488.125 358.695312 486.863281 C 358.847656 486.445312 359 486.0625 359.230469 485.679688 C 360.53125 483.269531 362.75 481.699219 365.234375 481.699219 C 369.253906 481.699219 372.542969 485.90625 372.542969 491.070312 C 372.542969 496.238281 369.253906 500.445312 365.234375 500.445312 C 361.179688 500.175781 359.382812 497.421875 358.578125 494.972656 Z M 375.410156 527.679688 C 370.898438 527.679688 366.804688 523.511719 363.820312 516.816406 C 363.246094 515.554688 362.75 514.175781 362.25 512.722656 C 362.023438 512.074219 363.359375 511.652344 364.125 512.113281 C 365.65625 513.03125 367.1875 513.566406 368.488281 513.910156 C 369.40625 514.253906 370.285156 514.445312 371.28125 514.445312 C 378.355469 514.445312 384.09375 504.191406 384.09375 491.53125 C 384.09375 478.871094 378.355469 468.617188 371.28125 468.617188 C 369.824219 468.617188 368.449219 469.039062 367.1875 469.839844 C 365.273438 470.949219 362.097656 469.957031 362.632812 468.386719 C 365.617188 459.820312 370.246094 454.347656 375.449219 454.347656 C 383.175781 454.347656 389.640625 466.476562 391.324219 482.769531 C 391.324219 482.769531 391.324219 482.769531 391.324219 482.808594 C 391.363281 483.078125 391.402344 483.34375 391.441406 483.574219 C 391.667969 485.984375 391.785156 488.472656 391.785156 490.996094 C 391.785156 501.554688 389.792969 511.078125 386.621094 517.773438 C 383.636719 523.933594 379.734375 527.679688 375.410156 527.679688 Z M 375.410156 527.679688 " fill-opacity="1" fill-rule="nonzero"/><path fill="#0d931f" d="M 540.746094 456.644531 C 540.402344 456.683594 539.292969 456.757812 537.835938 456.988281 Z M 540.746094 456.644531 " fill-opacity="1" fill-rule="nonzero"/><path fill="#0d931f" d="M 590.4375 412.652344 C 585.425781 410.433594 553.675781 408.214844 553.675781 408.214844 L 539.75 408.214844 L 531.410156 413.226562 C 531.410156 413.226562 483.554688 413.800781 467.949219 407.105469 C 452.339844 400.449219 455.667969 340.847656 455.667969 340.847656 C 462.132812 342.492188 468.292969 343.910156 474.105469 345.171875 C 479.234375 353.777344 489.636719 369.769531 497.746094 372.597656 C 508.878906 376.5 536.726562 372.332031 536.726562 372.332031 C 536.726562 372.332031 541.242188 359.441406 542.925781 352.667969 C 545.183594 352.554688 547.285156 352.441406 549.160156 352.25 C 550.078125 357.335938 552.605469 370.457031 554.09375 370.6875 C 555.96875 370.992188 561.898438 370.6875 562.167969 370.417969 C 562.472656 370.152344 566.183594 349.074219 565.992188 348.691406 C 544.839844 314.148438 444.613281 299.6875 444.613281 299.6875 C 445.1875 251.21875 432.371094 197.777344 432.371094 191.082031 C 432.371094 184.429688 441.859375 190.546875 445.1875 187.753906 C 448.554688 184.964844 450.199219 176.625 445.1875 174.941406 C 440.175781 173.296875 344.425781 156.042969 329.925781 155.46875 C 315.46875 154.894531 212.984375 159.371094 197.414062 162.125 C 181.808594 164.917969 176.796875 172.1875 176.796875 172.1875 L 305.253906 166.792969 L 307.472656 171.996094 L 281.496094 171.996094 L 286.660156 212.085938 L 311.183594 212.8125 L 314.894531 278.878906 L 314.855469 279.910156 C 313.746094 283.429688 313.667969 286.71875 314.625 289.511719 L 312.675781 367.933594 L 305.675781 367.933594 C 297.984375 367.933594 291.445312 362.578125 289.835938 355.117188 C 289.796875 354.8125 289.722656 354.542969 289.683594 354.199219 C 287.808594 344.941406 271.128906 326.351562 266.65625 321.148438 C 262.21875 315.984375 252.921875 320.039062 245.84375 307.414062 C 238.804688 294.789062 215.050781 282.550781 215.050781 282.550781 L 215.433594 272.910156 C 215.433594 272.910156 219.910156 216.140625 221.019531 205.734375 C 222.128906 195.332031 221.019531 196.820312 216.582031 194.949219 C 212.144531 193.074219 216.960938 185.308594 216.960938 185.308594 L 233.296875 186.035156 L 227.328125 283.695312 C 227.328125 283.695312 235.898438 291.117188 236.242188 290.007812 C 236.625 288.898438 242.554688 192.765625 244.390625 182.363281 C 246.265625 171.996094 277.824219 180.144531 277.824219 180.144531 L 277.058594 171.996094 C 277.058594 171.996094 176.835938 172.1875 179.4375 178.652344 C 182.035156 185.15625 202.808594 185.726562 202.808594 191.65625 C 202.808594 197.585938 212.105469 199.078125 212.105469 199.078125 L 206.902344 269.964844 C 206.902344 269.964844 203.191406 269.964844 198.332031 271.074219 C 193.511719 272.183594 193.894531 284.078125 185.710938 282.585938 C 177.5625 281.097656 137.433594 291.882812 133.378906 310.054688 C 129.285156 328.261719 144.164062 326.769531 160.460938 327.117188 C 176.796875 327.496094 192.746094 321.53125 192.746094 321.53125 C 192.746094 321.53125 157.132812 323.40625 153.039062 318.929688 C 148.945312 314.492188 150.820312 298.5 177.140625 291.84375 C 203.496094 285.1875 229.855469 320.804688 235.820312 325.625 C 241.75 330.445312 246.953125 330.558594 261.988281 331.667969 C 277.023438 332.777344 294.007812 378.453125 297.066406 401.863281 C 300.128906 425.238281 290.371094 457.828125 290.371094 457.828125 L 310.683594 460.046875 C 310.683594 460.046875 312.636719 447.808594 320.976562 429.445312 C 329.316406 411.082031 366.078125 405.496094 366.078125 405.496094 C 366.078125 405.496094 418.984375 406.605469 434.550781 408.824219 C 450.160156 411.082031 454.597656 426.652344 464.621094 441.6875 C 474.640625 456.71875 472.957031 490.152344 472.957031 490.152344 L 503.5625 490.691406 C 503.5625 490.691406 494.113281 478.449219 492.429688 474.546875 C 490.785156 470.644531 496.90625 469.535156 501.917969 458.9375 C 506.929688 448.34375 490.785156 444.480469 482.40625 446.125 C 474.066406 447.808594 476.285156 436.101562 476.285156 436.101562 C 476.285156 436.101562 473.496094 427.1875 490.785156 429.445312 C 508.039062 431.664062 526.972656 423.859375 526.972656 423.859375 C 527.546875 446.125 530.339844 447.808594 530.339844 447.808594 C 530.339844 447.808594 529.230469 440.539062 531.984375 425.503906 C 534.777344 410.472656 559.832031 411.042969 565.953125 421.601562 C 572.074219 432.199219 572.074219 466.128906 562.625 477.835938 C 553.140625 489.542969 533.09375 478.410156 525.328125 478.410156 C 517.5625 478.410156 523.109375 474.507812 523.109375 466.167969 C 523.109375 460.046875 532.710938 457.792969 537.835938 457.0625 L 511.402344 460.046875 C 511.402344 460.046875 512.511719 486.789062 514.195312 488.433594 C 515.839844 490.117188 544.265625 493.445312 549.8125 494.019531 C 555.394531 494.589844 560.40625 491.226562 567.101562 485.105469 C 573.757812 478.984375 594.378906 483.996094 599.386719 480.09375 C 604.398438 476.191406 602.144531 446.699219 602.144531 436.675781 C 602.105469 426.574219 595.449219 414.871094 590.4375 412.652344 Z M 563.046875 349.683594 C 562.742188 354.121094 562.128906 361.851562 561.289062 364.949219 C 560.101562 369.386719 555.550781 367.816406 555.550781 367.816406 L 551.457031 351.902344 C 557.003906 351.253906 560.75 350.335938 563.046875 349.683594 Z M 511.175781 351.292969 C 522.804688 352.59375 532.253906 352.898438 539.863281 352.707031 C 539.558594 353.472656 539.292969 354.3125 538.910156 355.269531 C 535.007812 365.867188 533.898438 369.460938 533.898438 369.460938 C 533.898438 369.460938 514.960938 373.898438 512.167969 368.890625 C 510.5625 365.980469 510.753906 357.640625 511.175781 351.292969 Z M 506.46875 350.757812 C 505.855469 357.949219 504.59375 368.734375 502.757812 368.925781 C 500.386719 369.15625 488.796875 356.761719 483.480469 347.046875 C 491.855469 348.652344 499.507812 349.875 506.46875 350.757812 Z M 328.550781 171.152344 C 328.550781 171.152344 410.949219 168.933594 420.628906 196.019531 C 430.265625 223.101562 434.742188 299.609375 434.742188 299.609375 L 409.152344 297.734375 C 409.152344 297.734375 407.660156 290.316406 403.566406 285.113281 C 399.472656 279.910156 376.480469 282.511719 373.84375 283.238281 C 371.242188 284.003906 368.257812 298.84375 368.257812 298.84375 L 328.550781 299.609375 C 328.550781 299.609375 328.550781 299.113281 328.589844 297.734375 C 331.074219 297.699219 333.789062 297.355469 336.621094 296.589844 L 364.394531 296.246094 C 364.394531 296.246094 366.878906 282.625 371.355469 278.992188 C 375.71875 275.472656 398.59375 281.171875 399.703125 281.476562 C 399.128906 281.058594 393.582031 277.195312 388.035156 275.089844 C 384.363281 273.710938 374.378906 273.484375 367.226562 273.636719 C 367.453125 273.214844 367.722656 272.832031 367.953125 272.410156 C 371.316406 265.871094 371.507812 259.941406 368.523438 255.65625 C 362.671875 247.277344 346.566406 248.734375 331.839844 259.023438 C 330.617188 259.863281 329.429688 260.78125 328.28125 261.699219 C 326.714844 230.945312 323.003906 178.917969 323.003906 178.917969 C 322.964844 171.535156 328.550781 171.152344 328.550781 171.152344 Z M 346.339844 272.488281 C 346.339844 272.488281 341.976562 264.378906 340.179688 260.398438 C 346.03125 257.261719 351.578125 255.847656 355.941406 255.847656 C 359.6875 255.847656 362.519531 256.882812 363.898438 258.871094 C 365.121094 260.589844 365.273438 263.15625 364.433594 266.0625 C 361.523438 269.082031 355.824219 274.628906 350.585938 277.117188 C 350.621094 277.15625 351.347656 273.789062 346.339844 272.488281 Z M 343.773438 287.828125 C 338.191406 290.734375 332.871094 292.113281 328.664062 292.113281 C 328.703125 290.925781 328.703125 289.589844 328.78125 288.058594 C 329.007812 288.671875 329.507812 289.207031 329.507812 289.207031 C 329.507812 289.207031 339.144531 287.332031 340.828125 284.921875 C 341.824219 283.429688 343.011719 285.800781 343.773438 287.828125 Z M 341.710938 273.789062 C 341.710938 273.789062 335.972656 274.554688 339.492188 281.210938 C 339.492188 281.210938 335.207031 285.648438 330.960938 285.839844 C 329.699219 285.878906 329.085938 286.222656 328.78125 286.605469 C 328.816406 285.152344 328.855469 283.542969 328.894531 281.785156 C 328.96875 279.296875 328.816406 274.746094 328.589844 268.855469 C 330.5 266.980469 332.644531 265.21875 334.976562 263.613281 C 335.4375 263.269531 335.933594 262.964844 336.390625 262.617188 C 338.226562 266.445312 341.710938 273.789062 341.710938 273.789062 Z M 355.25 388.320312 C 333.371094 394.632812 325.910156 403.164062 325.910156 403.164062 C 325.910156 403.164062 308.847656 392.757812 309.921875 392.03125 C 311.03125 391.265625 325.910156 390.15625 325.910156 390.15625 L 327.019531 369.347656 L 319.597656 369.730469 L 328.511719 360.816406 L 329.238281 305.847656 C 329.238281 305.847656 367.109375 303.972656 365.617188 307.71875 C 364.125 311.429688 361.523438 354.121094 361.523438 362.269531 C 361.523438 370.457031 383.40625 367.855469 396.066406 374.550781 C 408.425781 381.09375 415.769531 391.917969 416.113281 392.339844 C 415.195312 392.148438 376.902344 382.085938 355.25 388.320312 Z M 371.585938 315.179688 L 374.378906 307.375 C 374.378906 307.375 428.8125 315.714844 479.996094 339.625 C 476.285156 338.210938 418.484375 316.25 371.585938 315.179688 Z M 371.585938 315.179688 " fill-opacity="1" fill-rule="nonzero"/><path fill="#0d931f" d="M 626.203125 420.570312 C 625.746094 420.609375 625.285156 420.683594 624.828125 420.761719 C 623.375 420.992188 621.921875 421.183594 620.464844 421.449219 C 619.050781 421.679688 617.636719 421.945312 616.21875 422.214844 L 614.117188 422.675781 C 613.425781 422.789062 612.738281 422.980469 612.050781 423.171875 C 610.902344 423.4375 609.792969 423.746094 608.683594 424.050781 C 610.253906 430.59375 610.023438 437.59375 609.488281 444.210938 C 609.449219 444.671875 609.410156 445.167969 609.371094 445.625 C 609.488281 445.589844 609.5625 445.550781 609.679688 445.472656 C 610.328125 445.207031 611.054688 444.976562 611.746094 444.707031 C 613.160156 444.25 614.535156 443.75 616.027344 443.371094 C 616.753906 443.140625 617.445312 442.910156 618.210938 442.757812 L 620.429688 442.222656 C 621.921875 441.878906 623.410156 441.53125 624.941406 441.226562 C 626.472656 440.921875 627.964844 440.652344 629.496094 440.386719 C 630.527344 440.195312 631.558594 440.042969 632.59375 439.886719 C 633.128906 439.8125 633.511719 439.503906 633.433594 439.160156 C 632.171875 432.582031 630.144531 426.5 627.503906 421.066406 C 627.3125 420.683594 626.738281 420.457031 626.203125 420.570312 Z M 626.203125 420.570312 " fill-opacity="1" fill-rule="nonzero"/><path fill="#0d931f" d="M 611.972656 419.460938 L 614.15625 418.886719 C 615.644531 418.582031 617.175781 418.199219 618.667969 417.929688 C 620.121094 417.625 621.691406 417.355469 623.222656 417.089844 C 623.871094 416.972656 624.558594 416.859375 625.25 416.78125 C 622.035156 411.199219 618.246094 406.261719 613.925781 402.015625 C 613.695312 402.015625 613.503906 402.054688 613.3125 402.054688 C 611.820312 402.167969 610.367188 402.285156 608.875 402.4375 L 606.695312 402.667969 C 605.96875 402.707031 605.242188 402.820312 604.515625 402.933594 C 603.0625 403.085938 601.683594 403.355469 600.230469 403.585938 C 599.542969 403.699219 598.851562 403.816406 598.164062 403.96875 C 597.4375 404.082031 596.789062 404.195312 596.023438 404.3125 L 593.804688 404.617188 C 593.078125 404.695312 592.273438 404.769531 591.394531 404.769531 L 590.511719 403.890625 C 591.011719 403.46875 591.585938 403.125 592.195312 402.742188 C 592.808594 402.359375 593.496094 402.132812 594.148438 401.824219 C 594.835938 401.558594 595.523438 401.289062 596.289062 401.097656 C 597.054688 400.90625 597.820312 400.714844 598.546875 400.5625 C 600.078125 400.257812 601.605469 399.914062 603.136719 399.644531 C 603.902344 399.53125 604.667969 399.378906 605.433594 399.261719 L 607.765625 398.957031 C 608.609375 398.839844 609.410156 398.726562 610.253906 398.648438 C 606.390625 395.320312 602.179688 392.492188 597.78125 390.15625 C 597.015625 389.738281 596.25 389.394531 595.488281 388.972656 L 595.449219 388.972656 C 593.917969 388.933594 592.464844 388.933594 590.972656 388.933594 C 590.246094 388.933594 589.519531 388.972656 588.792969 388.972656 C 588.066406 388.972656 587.339844 389.011719 586.613281 389.011719 L 584.355469 388.933594 C 583.589844 388.894531 582.785156 388.855469 581.945312 388.703125 L 581.449219 387.746094 C 582.097656 387.402344 582.824219 387.136719 583.550781 386.90625 C 583.667969 386.867188 583.78125 386.828125 583.894531 386.792969 C 578.195312 386.636719 572.496094 386.5625 567.140625 386.5625 C 567.101562 386.371094 567.0625 386.257812 567.0625 386.257812 C 567.0625 386.257812 561.863281 385.148438 559.988281 378.109375 C 559.988281 378.109375 557.769531 398.152344 554.976562 400.753906 C 552.796875 402.78125 550.882812 404.234375 550.117188 404.808594 C 551.570312 403.96875 557.460938 400.714844 563.125 400.105469 C 570.890625 400.257812 579.113281 401.863281 586 403.660156 C 594.644531 405.878906 603.214844 410.011719 606.925781 418.617188 C 607.230469 419.308594 607.5 419.996094 607.726562 420.683594 C 608.378906 420.457031 609.066406 420.265625 609.753906 420.035156 C 610.480469 419.84375 611.246094 419.613281 611.972656 419.460938 Z M 587.109375 396.433594 C 586.265625 396.585938 585.464844 396.621094 584.699219 396.621094 L 582.402344 396.699219 C 581.675781 396.738281 580.949219 396.660156 580.222656 396.699219 C 579.496094 396.660156 578.769531 396.621094 578.042969 396.621094 C 576.589844 396.621094 575.097656 396.585938 573.605469 396.660156 C 572.878906 396.699219 572.113281 396.699219 571.386719 396.777344 L 569.167969 396.890625 C 568.707031 396.929688 568.210938 396.929688 567.753906 397.003906 C 568.058594 395.894531 568.171875 394.671875 568.171875 393.371094 C 568.363281 393.332031 568.59375 393.332031 568.785156 393.332031 L 571.195312 393.292969 C 572 393.257812 572.800781 393.292969 573.605469 393.292969 C 575.210938 393.292969 576.820312 393.410156 578.386719 393.449219 L 578.464844 393.449219 C 579.265625 393.523438 580.070312 393.5625 580.875 393.640625 C 581.675781 393.675781 582.441406 393.832031 583.246094 394.023438 C 584.011719 394.175781 584.777344 394.328125 585.503906 394.59375 C 586.230469 394.824219 586.957031 395.09375 587.644531 395.476562 Z M 587.109375 396.433594 " fill-opacity="1" fill-rule="nonzero"/><path fill="#8cf193" d="M 555.742188 499.488281 C 555.933594 499.183594 556.085938 498.800781 556.238281 498.492188 C 554.441406 498.648438 552.640625 498.835938 550.84375 499.027344 C 548.394531 502.355469 545.488281 504.308594 542.429688 504.308594 C 539.902344 504.308594 537.492188 503.007812 535.390625 500.675781 C 534.738281 500.636719 534.128906 500.597656 533.476562 500.519531 C 530.570312 500.136719 527.816406 499.335938 525.0625 498.417969 C 529.269531 504.765625 534.777344 508.59375 540.785156 508.59375 C 543.613281 508.59375 546.292969 507.75 548.816406 506.222656 C 549.734375 505.683594 551.226562 506.296875 550.613281 506.984375 C 546.445312 511.652344 541.472656 514.367188 536.078125 514.367188 C 527.242188 514.367188 519.398438 506.949219 514.503906 495.585938 C 511.976562 495.320312 509.414062 495.394531 506.777344 495.507812 C 506.203125 495.546875 505.628906 495.585938 505.015625 495.625 C 510.714844 509.359375 520.699219 518.460938 532.023438 518.460938 C 542.621094 518.460938 552.03125 510.542969 557.84375 498.378906 C 557.347656 498.417969 556.851562 498.457031 556.351562 498.53125 C 556.238281 498.800781 556.007812 499.183594 555.742188 499.488281 Z M 555.742188 499.488281 " fill-opacity="1" fill-rule="nonzero"/><path fill="#8cf193" d="M 306.707031 284.003906 C 305.597656 278.417969 298.0625 265.066406 295.574219 263.117188 C 293.089844 261.164062 272.46875 260.898438 268.835938 261.433594 C 265.199219 262.007812 263.554688 262.007812 260.191406 265.871094 C 256.863281 269.773438 258.238281 280.636719 258.238281 280.332031 C 258.238281 280.0625 245.996094 280.0625 244.886719 280.332031 L 241.558594 285.914062 C 241.558594 285.914062 249.097656 289.816406 256.328125 296.207031 C 263.554688 302.59375 256.058594 305.65625 257.167969 308.449219 C 261.875 320.230469 293.355469 319.578125 293.355469 320.421875 C 293.355469 321.261719 270.519531 319.578125 270.519531 319.578125 C 270.519531 319.578125 291.136719 338.515625 293.890625 351.332031 C 296.683594 364.144531 310.035156 363.878906 310.035156 363.878906 L 310.875 312.65625 L 307.816406 309.019531 C 307.816406 309.019531 307.816406 303.167969 307.816406 299.839844 C 307.855469 296.550781 307.855469 289.589844 306.707031 284.003906 Z M 306.707031 284.003906 " fill-opacity="1" fill-rule="nonzero"/><path fill="#8cf193" d="M 357.851562 309.25 C 353.414062 308.523438 332.605469 309.25 332.605469 309.25 L 332.605469 329.679688 C 332.605469 329.679688 348.9375 324.09375 350.429688 335.261719 C 351.921875 346.394531 356.015625 384.992188 356.015625 384.992188 C 356.015625 384.992188 356.015625 384.992188 356.398438 366.058594 C 356.742188 347.121094 362.328125 309.976562 357.851562 309.25 Z M 357.851562 309.25 " fill-opacity="1" fill-rule="nonzero"/><path fill="#0d931f" d="M 368.257812 206.347656 C 368.523438 207.457031 370.207031 249.230469 370.207031 249.230469 C 370.207031 249.230469 375.488281 261.472656 373.535156 266.214844 C 371.585938 270.957031 371.585938 270.957031 371.585938 270.957031 C 371.585938 270.957031 380.691406 270.574219 387.84375 272.375 C 386.238281 270.230469 385.320312 266.902344 386.351562 261.777344 C 386.621094 260.398438 384.402344 210.824219 384.402344 210.824219 L 389.410156 209.980469 L 390.253906 203.59375 C 390.253906 203.59375 382.71875 203.019531 383.023438 202.214844 C 383.292969 201.375 383.023438 201.640625 386.082031 200.839844 C 389.144531 199.996094 412.515625 197.777344 413.359375 197.203125 C 414.199219 196.628906 419.480469 194.984375 411.675781 188.558594 C 411.675781 188.558594 413.359375 193.570312 403.871094 193.570312 C 394.421875 193.570312 331.1875 203.859375 331.1875 203.859375 C 332.070312 203.554688 367.988281 205.199219 368.257812 206.347656 Z M 368.257812 206.347656 " fill-opacity="1" fill-rule="nonzero"/><path fill="#0d931f" d="M 395.265625 276.199219 C 393.8125 274.324219 391.019531 273.101562 387.882812 272.296875 C 390.597656 276.007812 395.265625 276.199219 395.265625 276.199219 Z M 395.265625 276.199219 " fill-opacity="1" fill-rule="nonzero"/><g clip-path="url(#64c10c6a8b)"><path fill="#0d931f" d="M 376.136719 76.820312 C 211.070312 76.820312 76.800781 211.128906 76.800781 376.15625 C 76.800781 432.199219 92.292969 484.683594 119.222656 529.59375 C 121.402344 533.265625 123.660156 536.863281 126.03125 540.457031 C 128.480469 544.128906 131.007812 547.804688 133.605469 551.398438 C 133.953125 551.894531 134.335938 552.394531 134.679688 552.851562 C 137.089844 556.179688 139.613281 559.433594 142.175781 562.683594 C 144.664062 565.820312 147.226562 568.882812 149.863281 571.863281 C 152.503906 574.925781 155.257812 577.984375 158.011719 580.929688 C 161.839844 584.949219 165.742188 588.925781 169.757812 592.75 C 173.199219 596.042969 176.679688 599.214844 180.277344 602.316406 C 183.988281 605.527344 187.773438 608.664062 191.636719 611.6875 C 198.292969 616.929688 205.140625 621.863281 212.21875 626.492188 C 216.464844 629.285156 220.710938 631.921875 225.074219 634.488281 C 228.746094 636.667969 232.492188 638.734375 236.242188 640.722656 C 249.402344 647.722656 263.171875 653.765625 277.402344 658.738281 C 282.644531 660.574219 287.925781 662.257812 293.28125 663.789062 C 300.011719 665.738281 306.820312 667.460938 313.746094 668.914062 C 319.90625 670.214844 326.140625 671.363281 332.453125 672.28125 C 340.980469 673.542969 349.628906 674.421875 358.386719 674.921875 C 364.277344 675.304688 370.207031 675.457031 376.136719 675.457031 L 376.710938 675.457031 C 394.996094 675.417969 412.9375 673.734375 430.34375 670.523438 C 496.027344 658.472656 554.25 624.886719 597.476562 577.410156 C 606.234375 567.773438 614.421875 557.519531 621.921875 546.769531 C 655.660156 498.339844 675.476562 439.46875 675.476562 376.117188 C 675.476562 211.128906 541.203125 76.820312 376.136719 76.820312 Z M 139.269531 538.277344 L 153.117188 535.945312 L 190.070312 530.359375 L 208.585938 527.835938 L 227.101562 525.5 C 239.417969 523.972656 251.734375 522.480469 264.128906 521.332031 L 268.339844 520.910156 C 270.59375 523.359375 273.042969 525.347656 275.566406 527.03125 L 267 528.21875 L 258.085938 529.746094 C 252.15625 530.816406 246.1875 531.660156 240.335938 532.921875 L 222.625 536.824219 C 216.773438 538.085938 210.996094 539.730469 205.140625 541.183594 L 196.421875 543.441406 L 187.8125 546.121094 L 179.128906 548.796875 L 174.84375 550.136719 L 170.597656 551.667969 L 153.84375 557.710938 C 148.757812 551.476562 143.898438 544.972656 139.269531 538.277344 Z M 192.9375 369.960938 C 192.976562 370 192.976562 370.074219 193.054688 370.113281 C 196.421875 374.78125 199.402344 380.210938 201.8125 386.257812 L 201.8125 386.292969 C 202.578125 388.207031 203.34375 390.15625 203.957031 392.222656 C 205.371094 396.46875 206.480469 401.023438 207.359375 405.765625 C 207.859375 407.753906 208.316406 409.78125 208.660156 411.886719 C 209.007812 413.835938 209.234375 415.828125 209.425781 417.855469 C 209.65625 420.339844 209.808594 422.902344 209.808594 425.464844 C 209.808594 430.859375 209.3125 436.023438 208.355469 440.84375 C 208.242188 441.761719 208.085938 442.71875 207.972656 443.636719 C 207.667969 445.589844 207.359375 447.539062 206.980469 449.453125 C 205.332031 457.484375 202.886719 464.90625 199.785156 471.484375 C 198.984375 473.207031 198.140625 474.851562 197.222656 476.460938 L 197.222656 476.496094 C 188.808594 491.378906 176.679688 500.75 163.175781 500.75 C 137.777344 500.75 117.15625 467.507812 117.15625 426.5 C 117.15625 385.492188 137.738281 352.285156 163.175781 352.285156 C 174.5 352.324219 184.945312 358.980469 192.9375 369.960938 Z M 171.824219 333.3125 C 176.144531 333.160156 181.042969 333.082031 186.28125 332.96875 C 184.984375 333.3125 183.605469 333.65625 182.265625 334 L 181.84375 334.117188 C 181.15625 334.765625 180.46875 335.492188 179.703125 336.105469 C 179.742188 337.636719 179.742188 339.128906 179.703125 340.65625 C 179.664062 341.917969 179.664062 343.183594 179.589844 344.40625 C 179.589844 345.054688 178.402344 345.4375 177.523438 345.054688 C 175.917969 344.328125 174.269531 343.71875 172.550781 343.183594 C 172.128906 343.027344 171.859375 342.800781 171.859375 342.492188 L 171.824219 340.65625 C 171.746094 338.171875 171.824219 335.722656 171.824219 333.3125 Z M 234.828125 475.769531 L 232.648438 474.851562 C 231.117188 474.316406 229.664062 473.742188 228.132812 473.207031 C 226.601562 472.671875 225.074219 472.175781 223.503906 471.675781 C 221.9375 471.179688 220.367188 470.683594 218.800781 470.222656 L 217.152344 469.765625 C 216.617188 469.804688 215.96875 469.878906 215.433594 469.917969 C 213.136719 471.027344 210.878906 472.175781 208.585938 473.285156 C 207.742188 473.703125 206.941406 474.085938 206.058594 474.46875 C 207.515625 471.867188 208.851562 469.265625 210.078125 466.628906 C 210.152344 466.476562 210.269531 466.320312 210.496094 466.207031 C 211.339844 465.824219 212.21875 465.402344 213.023438 464.984375 L 214.285156 464.332031 C 214.667969 464.179688 215.203125 464.140625 215.664062 464.21875 L 217.078125 464.601562 C 217.996094 464.828125 218.835938 465.097656 219.71875 465.328125 L 222.242188 466.09375 C 223.925781 466.628906 225.570312 467.164062 227.175781 467.738281 C 228.820312 468.3125 230.390625 468.886719 231.957031 469.535156 C 233.566406 470.109375 235.09375 470.796875 236.625 471.449219 L 238.882812 472.480469 C 239.609375 472.824219 240.335938 473.207031 241.0625 473.550781 C 242.515625 474.277344 243.894531 475.082031 245.269531 475.847656 C 245.308594 475.847656 245.308594 475.886719 245.347656 475.886719 C 245.84375 476.230469 246.417969 476.574219 246.953125 476.917969 C 247.796875 477.453125 248.5625 478.066406 249.210938 478.714844 C 249.671875 479.136719 250.128906 479.558594 250.398438 480.09375 C 250.78125 480.628906 251.085938 481.203125 251.238281 481.816406 L 249.59375 482.503906 C 248.675781 482.234375 247.871094 481.96875 247.105469 481.625 L 244.964844 480.667969 C 244.277344 480.359375 243.664062 479.976562 242.976562 479.671875 C 242.285156 479.367188 241.675781 478.984375 241.023438 478.640625 C 239.648438 477.988281 238.347656 477.300781 236.929688 476.6875 C 236.28125 476.382812 235.59375 476.039062 234.828125 475.769531 Z M 236.203125 504.308594 L 234.558594 504.996094 C 233.640625 504.730469 232.839844 504.421875 232.074219 504.078125 L 229.929688 503.160156 C 229.203125 502.855469 228.59375 502.472656 227.902344 502.164062 C 227.214844 501.820312 226.601562 501.4375 225.992188 501.132812 C 224.613281 500.484375 223.3125 499.792969 221.898438 499.21875 C 221.132812 498.914062 220.480469 498.570312 219.753906 498.265625 L 217.574219 497.382812 C 216.082031 496.808594 214.628906 496.273438 213.0625 495.699219 C 211.570312 495.203125 210 494.667969 208.433594 494.171875 C 206.863281 493.671875 205.296875 493.175781 203.726562 492.71875 L 202.082031 492.257812 C 201.507812 492.296875 200.894531 492.335938 200.359375 492.371094 C 198.066406 493.480469 195.808594 494.628906 193.476562 495.738281 C 192.058594 496.429688 190.605469 497.117188 189.230469 497.804688 C 190.835938 496.160156 192.25 494.515625 193.589844 492.832031 C 194.851562 491.300781 196.078125 489.734375 197.261719 488.125 C 197.492188 487.898438 197.988281 487.554688 198.257812 487.324219 L 199.25 486.863281 C 199.632812 486.636719 200.167969 486.636719 200.628906 486.75 L 202.003906 487.132812 C 203 487.363281 203.804688 487.589844 204.683594 487.859375 L 207.207031 488.625 C 208.851562 489.121094 210.496094 489.695312 212.105469 490.269531 C 213.710938 490.84375 215.355469 491.417969 216.886719 492.066406 C 218.492188 492.679688 220.023438 493.328125 221.589844 493.980469 L 223.847656 495.011719 C 224.574219 495.355469 225.265625 495.738281 226.027344 496.082031 C 227.484375 496.808594 228.859375 497.613281 230.238281 498.417969 C 230.847656 498.800781 231.421875 499.183594 232.035156 499.566406 C 232.800781 500.0625 233.488281 500.597656 234.0625 501.171875 C 234.519531 501.59375 235.019531 502.089844 235.324219 502.625 C 235.667969 503.160156 236.011719 503.695312 236.203125 504.308594 Z M 249.976562 448.726562 C 248.523438 448.152344 247.144531 447.539062 245.613281 447.003906 C 244.851562 446.734375 244.125 446.46875 243.359375 446.199219 L 241.0625 445.433594 C 239.457031 444.976562 237.925781 444.441406 236.359375 443.980469 C 234.75 443.523438 233.144531 443.0625 231.539062 442.679688 C 229.894531 442.261719 228.246094 441.839844 226.566406 441.496094 L 224.117188 440.960938 C 224 440.921875 224 440.882812 223.925781 440.882812 C 222.699219 441.609375 221.4375 442.335938 220.253906 443.023438 C 219.371094 443.5625 217.84375 443.101562 218.035156 442.375 C 218.339844 440.691406 218.644531 438.96875 218.875 437.25 L 218.875 437.210938 C 219.296875 436.980469 219.71875 436.75 220.136719 436.484375 L 221.246094 435.832031 C 221.628906 435.605469 222.128906 435.527344 222.625 435.640625 L 224.078125 435.949219 C 225.074219 436.175781 225.914062 436.332031 226.832031 436.558594 L 229.472656 437.171875 C 231.191406 437.632812 232.914062 438.089844 234.636719 438.550781 C 236.320312 439.046875 238.003906 439.542969 239.6875 440.078125 C 241.332031 440.613281 242.976562 441.1875 244.582031 441.761719 L 246.992188 442.679688 C 247.757812 442.988281 248.5625 443.332031 249.324219 443.675781 C 250.894531 444.324219 252.347656 445.050781 253.878906 445.78125 C 254.605469 446.160156 255.332031 446.542969 256.019531 446.925781 C 256.746094 447.308594 257.359375 447.769531 257.933594 448.226562 C 258.507812 448.6875 259.117188 449.144531 259.539062 449.71875 C 260 450.21875 260.382812 450.789062 260.648438 451.363281 L 259.117188 452.128906 C 258.125 451.9375 257.320312 451.671875 256.515625 451.363281 L 254.222656 450.5625 C 253.496094 450.253906 252.84375 449.910156 252.078125 449.644531 C 251.351562 449.375 250.664062 449.03125 249.976562 448.726562 Z M 257.894531 421.449219 C 256.9375 421.257812 256.136719 420.992188 255.371094 420.683594 L 253.035156 419.882812 C 252.269531 419.574219 251.660156 419.269531 250.894531 419 C 250.167969 418.695312 249.515625 418.351562 248.828125 418.046875 C 247.375 417.433594 245.960938 416.859375 244.429688 416.285156 C 243.664062 416.054688 242.976562 415.75 242.171875 415.519531 L 239.839844 414.753906 C 238.269531 414.296875 236.738281 413.761719 235.132812 413.300781 C 233.527344 412.84375 231.957031 412.421875 230.3125 412 C 228.667969 411.582031 227.0625 411.160156 225.417969 410.777344 L 223.695312 410.394531 C 223.160156 410.472656 222.585938 410.546875 222.011719 410.625 C 221.746094 410.738281 221.515625 410.929688 221.246094 411.042969 C 220.445312 411.503906 219.105469 411.199219 219.066406 410.546875 C 218.914062 409.324219 218.683594 408.136719 218.492188 406.988281 C 218.761719 406.53125 219.105469 405.957031 219.410156 405.535156 L 220.101562 405.117188 C 220.480469 404.925781 220.980469 404.847656 221.476562 404.960938 L 222.929688 405.269531 C 223.925781 405.496094 224.765625 405.652344 225.683594 405.878906 L 228.324219 406.53125 C 230.046875 406.953125 231.765625 407.410156 233.488281 407.90625 C 235.171875 408.40625 236.855469 408.902344 238.5 409.476562 C 240.144531 409.972656 241.789062 410.585938 243.394531 411.160156 L 245.804688 412.078125 C 246.570312 412.382812 247.375 412.726562 248.140625 413.035156 C 249.707031 413.683594 251.160156 414.410156 252.652344 415.097656 C 252.652344 415.136719 252.691406 415.136719 252.691406 415.136719 C 253.417969 415.519531 254.144531 415.902344 254.835938 416.285156 C 255.523438 416.667969 256.136719 417.128906 256.746094 417.585938 C 257.320312 418.046875 257.894531 418.503906 258.355469 419.039062 C 258.8125 419.535156 259.195312 420.109375 259.464844 420.683594 Z M 254.261719 390.273438 C 253.226562 390.15625 252.386719 389.964844 251.542969 389.777344 L 249.058594 389.125 C 248.214844 388.933594 247.488281 388.667969 246.722656 388.4375 C 245.960938 388.207031 245.195312 387.9375 244.429688 387.710938 C 242.824219 387.25 241.292969 386.792969 239.648438 386.410156 C 238.84375 386.21875 238.039062 385.988281 237.199219 385.796875 L 234.710938 385.261719 C 233.066406 384.917969 231.382812 384.535156 229.703125 384.265625 C 228.054688 383.921875 226.296875 383.65625 224.613281 383.347656 C 222.890625 383.121094 221.171875 382.851562 219.449219 382.621094 L 217.691406 382.390625 C 217.191406 382.507812 216.582031 382.621094 216.042969 382.773438 L 214.09375 384.34375 C 213.445312 384.839844 212.027344 384.6875 211.796875 384.039062 C 211.261719 382.773438 210.6875 381.472656 210.078125 380.171875 C 209.960938 379.945312 210.078125 379.675781 210.308594 379.484375 C 210.84375 379.101562 211.339844 378.683594 211.835938 378.300781 L 212.832031 377.535156 C 213.136719 377.304688 213.632812 377.152344 214.132812 377.226562 L 215.664062 377.382812 C 216.65625 377.496094 217.574219 377.609375 218.53125 377.726562 L 221.285156 378.109375 C 223.160156 378.414062 224.957031 378.683594 226.757812 379.027344 C 228.554688 379.332031 230.351562 379.675781 232.148438 380.058594 C 233.949219 380.441406 235.667969 380.902344 237.429688 381.320312 L 240.03125 382.046875 C 240.871094 382.277344 241.75 382.546875 242.554688 382.8125 C 244.277344 383.308594 245.921875 383.882812 247.605469 384.457031 C 248.40625 384.765625 249.210938 385.109375 250.015625 385.414062 C 250.78125 385.71875 251.542969 386.140625 252.234375 386.523438 C 252.921875 386.945312 253.609375 387.328125 254.183594 387.824219 C 254.757812 388.320312 255.292969 388.820312 255.675781 389.394531 Z M 248.332031 362.003906 C 247.296875 362.042969 246.378906 362.003906 245.5 361.925781 L 242.824219 361.660156 C 241.980469 361.582031 241.140625 361.429688 240.296875 361.3125 C 239.417969 361.199219 238.613281 361.085938 237.773438 360.933594 C 236.089844 360.742188 234.40625 360.472656 232.648438 360.359375 C 231.765625 360.242188 230.925781 360.167969 230.046875 360.128906 L 227.40625 359.9375 C 225.648438 359.859375 223.925781 359.746094 222.128906 359.707031 C 220.367188 359.632812 218.570312 359.59375 216.808594 359.59375 C 215.050781 359.554688 213.253906 359.554688 211.492188 359.59375 L 208.851562 359.707031 L 208.660156 359.707031 C 207.398438 361.503906 206.136719 363.34375 204.757812 365.140625 C 204.1875 365.90625 203.574219 366.671875 203.039062 367.472656 C 201.777344 365.5625 200.398438 363.722656 198.945312 361.925781 C 198.792969 361.695312 198.792969 361.503906 198.90625 361.277344 C 200.054688 359.667969 201.203125 358.101562 202.386719 356.496094 L 203 355.613281 C 203.191406 355.347656 203.613281 355.15625 204.109375 355.117188 L 205.679688 355.078125 C 206.710938 355.039062 207.589844 355.039062 208.585938 355.003906 L 211.414062 354.964844 C 213.289062 354.964844 215.164062 355.003906 217.078125 355.078125 C 218.953125 355.117188 220.828125 355.195312 222.699219 355.347656 C 224.613281 355.460938 226.488281 355.613281 228.363281 355.769531 L 231.15625 356.074219 C 232.074219 356.1875 233.03125 356.339844 233.949219 356.457031 C 235.820312 356.6875 237.621094 357.03125 239.457031 357.335938 C 240.375 357.527344 241.292969 357.71875 242.210938 357.910156 C 243.128906 358.101562 243.96875 358.367188 244.8125 358.675781 C 245.652344 358.980469 246.457031 359.285156 247.222656 359.667969 C 247.988281 360.050781 248.714844 360.472656 249.324219 360.96875 Z M 236.320312 341.15625 C 235.324219 341.308594 234.367188 341.382812 233.488281 341.382812 L 230.8125 341.460938 C 229.96875 341.5 229.089844 341.421875 228.210938 341.460938 C 227.328125 341.421875 226.488281 341.382812 225.609375 341.382812 C 223.886719 341.382812 222.128906 341.347656 220.367188 341.421875 C 219.488281 341.460938 218.609375 341.460938 217.726562 341.535156 L 215.089844 341.691406 C 213.367188 341.804688 211.605469 341.917969 209.847656 342.074219 C 208.085938 342.226562 206.367188 342.417969 204.644531 342.609375 C 202.886719 342.835938 201.164062 342.992188 199.441406 343.257812 L 197.683594 343.527344 C 197.300781 343.753906 196.839844 344.023438 196.457031 344.292969 C 195.921875 346.011719 195.347656 347.734375 194.699219 349.457031 C 194.238281 350.71875 193.78125 352.058594 193.320312 353.320312 C 193.09375 353.96875 191.601562 354.160156 190.988281 353.625 C 189.6875 352.515625 188.3125 351.40625 186.894531 350.410156 C 186.664062 350.257812 186.550781 349.992188 186.664062 349.761719 C 186.78125 349.378906 186.894531 348.921875 187.046875 348.539062 C 187.773438 346.128906 188.65625 343.71875 189.457031 341.347656 L 189.800781 340.390625 C 189.917969 340.082031 190.222656 339.890625 190.71875 339.777344 L 192.175781 339.546875 C 193.207031 339.355469 194.085938 339.242188 195.003906 339.128906 L 197.796875 338.746094 C 199.671875 338.515625 201.507812 338.285156 203.382812 338.132812 C 205.257812 337.980469 207.132812 337.828125 209.007812 337.710938 C 210.878906 337.558594 212.753906 337.480469 214.667969 337.445312 L 217.5 337.40625 C 218.453125 337.367188 219.371094 337.40625 220.328125 337.40625 C 222.203125 337.40625 224.15625 337.519531 225.992188 337.636719 L 226.105469 337.636719 C 227.0625 337.710938 227.980469 337.75 228.9375 337.863281 C 229.894531 337.902344 230.8125 338.09375 231.730469 338.285156 C 232.648438 338.515625 233.527344 338.667969 234.40625 338.972656 C 235.285156 339.28125 236.128906 339.585938 236.929688 340.007812 Z M 162.71875 568 L 174.578125 564.75 L 178.824219 563.601562 L 183.109375 562.605469 L 191.675781 560.695312 L 200.246094 558.707031 L 208.890625 557.058594 C 214.667969 555.988281 220.367188 554.726562 226.183594 553.808594 L 243.550781 551.167969 C 249.363281 550.25 255.179688 549.5625 260.992188 548.796875 L 269.675781 547.765625 L 278.4375 546.921875 C 290.105469 545.660156 301.808594 544.894531 313.515625 544.015625 L 326.523438 543.367188 C 327.019531 544.320312 327.515625 545.238281 328.050781 546.121094 C 325.296875 546.808594 322.582031 547.457031 319.867188 548.183594 C 314.511719 549.5625 309.191406 551.132812 303.953125 552.699219 C 298.636719 554.191406 293.394531 555.914062 288.152344 557.597656 C 277.632812 560.960938 267.265625 564.710938 257.015625 568.535156 C 246.6875 572.398438 236.550781 576.609375 226.410156 580.855469 L 211.300781 587.433594 L 196.382812 594.433594 L 192.289062 596.425781 C 188.617188 593.363281 184.984375 590.148438 181.464844 586.898438 L 188.3125 583.53125 L 203.230469 576.570312 L 218.800781 569.761719 L 220.519531 569.035156 C 223.886719 567.617188 227.328125 566.164062 230.773438 564.75 L 225.074219 565.667969 C 221.4375 566.203125 217.882812 566.890625 214.054688 567.65625 C 212.066406 568.039062 210.152344 568.421875 208.242188 568.804688 L 199.824219 570.449219 L 182.878906 574.273438 L 178.824219 575.230469 L 174.84375 576.265625 L 171.515625 577.183594 C 168.417969 574.238281 165.511719 571.136719 162.71875 568 Z M 383.40625 444.132812 C 383.445312 444.171875 383.445312 444.210938 383.519531 444.25 C 386.390625 448.1875 388.875 452.78125 390.902344 457.867188 L 390.902344 457.90625 C 391.554688 459.511719 392.167969 461.15625 392.738281 462.878906 C 393.925781 466.476562 394.84375 470.300781 395.609375 474.277344 C 396.03125 475.960938 396.375 477.683594 396.71875 479.441406 C 396.988281 481.089844 397.214844 482.769531 397.367188 484.492188 C 397.558594 486.597656 397.675781 488.777344 397.675781 490.957031 C 397.675781 495.507812 397.214844 499.871094 396.414062 503.964844 C 396.296875 504.730469 396.183594 505.570312 396.105469 506.296875 C 395.878906 507.941406 395.570312 509.585938 395.265625 511.195312 C 394.769531 513.527344 394.230469 515.824219 393.582031 518.042969 C 392.394531 522.210938 390.902344 526.1875 389.183594 529.785156 C 388.492188 531.238281 387.804688 532.617188 387.039062 533.992188 L 387.039062 534.03125 C 379.886719 546.578125 369.671875 554.496094 358.3125 554.496094 C 350.316406 554.496094 342.855469 550.59375 336.699219 543.902344 C 336.316406 543.519531 336.007812 543.136719 335.664062 542.753906 C 329.773438 535.945312 325.105469 526.535156 322.316406 515.554688 C 320.441406 508.210938 319.40625 500.214844 319.40625 491.800781 C 319.40625 457.21875 336.8125 429.140625 358.273438 429.140625 C 367.835938 429.214844 376.636719 434.839844 383.40625 444.132812 Z M 365.578125 419.347656 C 365.542969 417.28125 365.578125 415.214844 365.578125 413.148438 L 365.578125 413.109375 C 369.253906 412.996094 373.34375 412.957031 377.78125 412.84375 C 376.636719 413.148438 375.527344 413.417969 374.378906 413.761719 L 373.996094 413.875 C 373.421875 414.449219 372.808594 415.023438 372.199219 415.558594 C 372.234375 416.820312 372.234375 418.082031 372.199219 419.382812 C 372.160156 420.457031 372.160156 421.527344 372.121094 422.597656 C 372.121094 423.09375 371.089844 423.4375 370.398438 423.09375 C 369.0625 422.519531 367.644531 421.984375 366.191406 421.488281 C 365.808594 421.375 365.617188 421.183594 365.617188 420.914062 Z M 431.566406 510.621094 C 430.304688 510.121094 429.15625 509.585938 427.894531 509.167969 C 427.246094 508.9375 426.632812 508.707031 425.984375 508.476562 L 424.070312 507.828125 C 422.730469 507.445312 421.429688 506.984375 420.09375 506.601562 C 418.753906 506.222656 417.375 505.839844 416.035156 505.492188 C 414.621094 505.113281 413.246094 504.765625 411.867188 504.460938 L 409.800781 504.003906 C 409.726562 503.964844 409.6875 503.964844 409.648438 503.964844 C 408.617188 504.574219 407.582031 505.1875 406.550781 505.800781 C 405.824219 506.222656 404.5625 505.839844 404.675781 505.226562 C 404.941406 503.773438 405.171875 502.320312 405.402344 500.902344 L 405.402344 500.867188 C 405.785156 500.675781 406.128906 500.484375 406.472656 500.253906 L 407.429688 499.679688 C 407.734375 499.527344 408.195312 499.449219 408.617188 499.527344 L 409.800781 499.757812 C 410.644531 499.945312 411.332031 500.101562 412.136719 500.253906 L 414.355469 500.789062 C 415.808594 501.171875 417.261719 501.554688 418.714844 501.976562 C 420.128906 502.394531 421.582031 502.816406 422.960938 503.273438 C 424.339844 503.695312 425.753906 504.195312 427.128906 504.691406 L 429.121094 505.492188 C 429.769531 505.761719 430.421875 506.03125 431.109375 506.296875 C 432.410156 506.871094 433.671875 507.484375 434.972656 508.09375 C 435.546875 508.402344 436.160156 508.746094 436.769531 509.050781 C 437.382812 509.359375 437.878906 509.777344 438.378906 510.160156 C 438.875 510.542969 439.371094 510.925781 439.714844 511.421875 C 440.097656 511.84375 440.441406 512.339844 440.671875 512.839844 L 439.371094 513.488281 C 438.53125 513.335938 437.839844 513.105469 437.191406 512.839844 L 435.242188 512.148438 C 434.628906 511.921875 434.09375 511.613281 433.441406 511.386719 C 432.714844 511.15625 432.140625 510.886719 431.566406 510.621094 Z M 432.675781 538.546875 L 431.300781 539.121094 C 430.535156 538.890625 429.847656 538.660156 429.234375 538.355469 L 427.4375 537.550781 C 426.863281 537.320312 426.328125 536.976562 425.753906 536.710938 C 425.179688 536.402344 424.644531 536.136719 424.109375 535.828125 C 422.960938 535.253906 421.851562 534.71875 420.664062 534.183594 C 420.054688 533.917969 419.480469 533.609375 418.828125 533.382812 L 416.992188 532.65625 C 415.730469 532.195312 414.507812 531.699219 413.207031 531.238281 C 411.945312 530.816406 410.605469 530.320312 409.304688 529.9375 C 408.003906 529.515625 406.664062 529.097656 405.324219 528.714844 L 403.949219 528.332031 C 403.488281 528.371094 402.953125 528.40625 402.496094 528.445312 C 400.582031 529.402344 398.667969 530.359375 396.679688 531.277344 C 395.992188 531.621094 395.304688 531.964844 394.578125 532.273438 C 395.800781 530.089844 396.949219 527.871094 397.980469 525.652344 C 398.058594 525.5 398.132812 525.386719 398.363281 525.269531 C 399.089844 524.964844 399.777344 524.582031 400.503906 524.238281 L 401.578125 523.703125 C 401.882812 523.550781 402.34375 523.550781 402.722656 523.589844 L 403.910156 523.933594 C 404.714844 524.125 405.402344 524.351562 406.128906 524.542969 L 408.269531 525.195312 C 409.726562 525.617188 411.0625 526.113281 412.441406 526.570312 C 413.816406 527.070312 415.195312 527.527344 416.496094 528.101562 C 417.835938 528.597656 419.136719 529.136719 420.4375 529.746094 L 422.3125 530.625 C 422.960938 530.933594 423.574219 531.238281 424.183594 531.546875 C 425.410156 532.195312 426.59375 532.84375 427.742188 533.496094 C 427.78125 533.496094 427.78125 533.535156 427.78125 533.535156 C 428.238281 533.839844 428.699219 534.109375 429.121094 534.375 C 429.847656 534.835938 430.457031 535.371094 431.03125 535.90625 C 431.414062 536.289062 431.796875 536.632812 432.027344 537.089844 C 432.257812 537.550781 432.523438 538.046875 432.675781 538.546875 Z M 438.261719 487.589844 C 437.496094 487.4375 436.769531 487.207031 436.121094 486.941406 L 434.207031 486.253906 C 433.558594 486.023438 433.023438 485.753906 432.371094 485.488281 C 431.757812 485.21875 431.222656 484.953125 430.648438 484.683594 C 429.425781 484.1875 428.238281 483.6875 426.9375 483.230469 C 426.328125 483 425.714844 482.769531 425.066406 482.578125 L 423.113281 481.929688 C 421.8125 481.507812 420.472656 481.089844 419.136719 480.707031 C 417.796875 480.324219 416.417969 479.941406 415.042969 479.597656 C 413.664062 479.214844 412.289062 478.871094 410.871094 478.5625 L 409.457031 478.21875 C 409 478.296875 408.460938 478.371094 408.003906 478.449219 C 407.773438 478.5625 407.542969 478.679688 407.351562 478.832031 C 406.664062 479.214844 405.554688 478.945312 405.480469 478.410156 C 405.324219 477.378906 405.171875 476.382812 405.019531 475.386719 C 405.25 475.003906 405.515625 474.507812 405.785156 474.125 L 406.359375 473.78125 C 406.664062 473.628906 407.085938 473.550781 407.507812 473.628906 L 408.730469 473.859375 C 409.535156 474.011719 410.261719 474.203125 411.027344 474.355469 L 413.246094 474.890625 C 414.699219 475.273438 416.191406 475.617188 417.605469 476.078125 C 419.058594 476.496094 420.472656 476.917969 421.851562 477.378906 C 423.265625 477.835938 424.644531 478.296875 426.019531 478.832031 L 428.085938 479.597656 C 428.738281 479.863281 429.386719 480.167969 430.039062 480.4375 C 431.339844 481.011719 432.5625 481.625 433.863281 482.160156 C 433.863281 482.199219 433.902344 482.199219 433.902344 482.199219 C 434.511719 482.542969 435.125 482.847656 435.699219 483.191406 C 436.273438 483.535156 436.808594 483.917969 437.34375 484.300781 C 437.804688 484.722656 438.300781 485.066406 438.683594 485.5625 C 439.066406 485.984375 439.410156 486.480469 439.601562 486.980469 Z M 435.203125 461.273438 C 434.359375 461.15625 433.632812 461.003906 432.945312 460.8125 L 430.839844 460.316406 C 430.152344 460.164062 429.539062 459.894531 428.851562 459.742188 C 428.203125 459.550781 427.550781 459.320312 426.9375 459.128906 C 425.5625 458.746094 424.261719 458.328125 422.882812 458.019531 C 422.195312 457.867188 421.546875 457.636719 420.820312 457.523438 L 418.714844 457.0625 C 417.335938 456.757812 415.921875 456.492188 414.46875 456.222656 C 413.054688 455.917969 411.597656 455.726562 410.183594 455.457031 C 408.730469 455.265625 407.277344 455.035156 405.824219 454.84375 L 404.371094 454.617188 C 403.910156 454.730469 403.414062 454.84375 402.992188 454.921875 L 401.347656 456.222656 C 400.773438 456.644531 399.625 456.527344 399.394531 455.992188 C 398.9375 454.921875 398.476562 453.851562 397.941406 452.703125 C 397.867188 452.511719 397.941406 452.320312 398.132812 452.128906 C 398.554688 451.785156 398.976562 451.441406 399.433594 451.097656 L 400.277344 450.445312 C 400.542969 450.253906 400.964844 450.140625 401.386719 450.179688 L 402.648438 450.332031 C 403.488281 450.410156 404.253906 450.484375 405.058594 450.597656 L 407.351562 450.945312 C 408.921875 451.171875 410.453125 451.441406 411.980469 451.707031 C 413.511719 451.976562 415.003906 452.28125 416.535156 452.628906 C 418.0625 452.933594 419.480469 453.316406 420.972656 453.660156 L 423.152344 454.273438 C 423.878906 454.464844 424.605469 454.691406 425.292969 454.921875 C 426.746094 455.34375 428.125 455.839844 429.539062 456.300781 C 430.230469 456.566406 430.878906 456.835938 431.605469 457.0625 C 432.257812 457.332031 432.867188 457.675781 433.480469 458.019531 C 434.054688 458.402344 434.628906 458.710938 435.125 459.128906 C 435.585938 459.550781 436.042969 459.972656 436.386719 460.429688 Z M 430.152344 437.402344 C 429.3125 437.441406 428.507812 437.402344 427.742188 437.324219 L 425.484375 437.097656 C 424.757812 437.019531 424.070312 436.90625 423.34375 436.789062 C 422.617188 436.714844 421.929688 436.597656 421.199219 436.484375 C 419.746094 436.332031 418.332031 436.101562 416.839844 435.984375 C 416.074219 435.910156 415.386719 435.832031 414.660156 435.796875 L 412.441406 435.640625 C 410.949219 435.566406 409.496094 435.488281 407.964844 435.449219 C 406.511719 435.375 404.980469 435.335938 403.488281 435.335938 L 398.976562 435.335938 L 396.757812 435.414062 L 396.605469 435.414062 C 395.53125 436.941406 394.460938 438.472656 393.3125 440.003906 C 392.816406 440.652344 392.320312 441.304688 391.859375 441.992188 C 390.789062 440.386719 389.640625 438.816406 388.378906 437.285156 C 388.265625 437.132812 388.265625 436.90625 388.339844 436.714844 C 389.296875 435.375 390.253906 434.035156 391.25 432.695312 L 391.785156 431.929688 C 391.9375 431.703125 392.28125 431.546875 392.703125 431.546875 L 394.003906 431.511719 C 394.84375 431.472656 395.609375 431.472656 396.449219 431.433594 L 398.859375 431.394531 C 400.46875 431.394531 402.074219 431.433594 403.640625 431.511719 C 405.25 431.546875 406.78125 431.625 408.425781 431.738281 C 410.03125 431.816406 411.597656 431.96875 413.167969 432.085938 L 415.539062 432.351562 C 416.304688 432.46875 417.109375 432.582031 417.910156 432.65625 C 419.480469 432.847656 421.011719 433.15625 422.539062 433.421875 C 423.304688 433.578125 424.070312 433.730469 424.875 433.882812 C 425.636719 434.035156 426.328125 434.265625 427.054688 434.53125 C 427.78125 434.800781 428.429688 435.03125 429.082031 435.375 C 429.730469 435.71875 430.34375 436.0625 430.878906 436.484375 Z M 420.054688 419.804688 C 419.210938 419.957031 418.410156 419.996094 417.644531 420.035156 L 415.386719 420.074219 C 414.660156 420.109375 413.933594 420.035156 413.207031 420.074219 C 412.441406 420.035156 411.753906 420.035156 411.027344 420.035156 C 409.570312 420.035156 408.078125 419.996094 406.589844 420.035156 C 405.824219 420.074219 405.097656 420.074219 404.332031 420.148438 L 402.113281 420.265625 C 400.660156 420.378906 399.167969 420.457031 397.675781 420.570312 C 396.183594 420.722656 394.730469 420.875 393.277344 421.027344 C 391.785156 421.183594 390.332031 421.375 388.875 421.601562 L 387.382812 421.832031 C 387.078125 422.023438 386.695312 422.253906 386.390625 422.484375 C 385.929688 423.9375 385.433594 425.429688 384.898438 426.84375 C 384.515625 427.953125 384.132812 429.023438 383.75 430.132812 C 383.519531 430.707031 382.296875 430.859375 381.761719 430.363281 C 380.652344 429.40625 379.503906 428.488281 378.28125 427.648438 C 378.089844 427.492188 377.972656 427.265625 378.050781 427.074219 C 378.164062 426.765625 378.28125 426.382812 378.355469 426.078125 C 378.96875 424.011719 379.695312 421.984375 380.421875 419.957031 L 380.691406 419.15625 C 380.765625 418.925781 381.074219 418.734375 381.457031 418.65625 L 382.71875 418.429688 C 383.558594 418.273438 384.324219 418.199219 385.128906 418.082031 L 387.460938 417.777344 C 389.03125 417.585938 390.597656 417.394531 392.167969 417.28125 C 393.734375 417.164062 395.304688 417.050781 396.949219 416.9375 C 398.515625 416.820312 400.085938 416.78125 401.730469 416.707031 L 404.101562 416.667969 C 404.90625 416.628906 405.707031 416.667969 406.511719 416.667969 C 408.117188 416.667969 409.726562 416.78125 411.292969 416.820312 L 411.410156 416.820312 C 412.171875 416.898438 413.015625 416.9375 413.78125 417.011719 C 414.582031 417.050781 415.386719 417.242188 416.152344 417.394531 C 416.917969 417.546875 417.683594 417.699219 418.445312 417.96875 C 419.171875 418.199219 419.902344 418.464844 420.550781 418.847656 Z M 204.875 606.445312 L 232.378906 596.078125 L 247.640625 590.648438 L 262.984375 585.367188 C 268.070312 583.570312 273.234375 582.039062 278.324219 580.320312 C 283.449219 578.558594 288.574219 577.027344 293.777344 575.421875 C 304.105469 572.171875 314.433594 569.1875 324.722656 566.125 C 329.890625 564.710938 335.054688 563.179688 340.253906 561.6875 L 340.714844 561.574219 L 355.863281 557.40625 C 357.96875 556.792969 360.03125 556.21875 362.136719 555.683594 C 357.507812 557.40625 352.421875 559.050781 349.167969 559.355469 L 377.820312 559.355469 C 372.617188 560.464844 367.453125 561.613281 362.289062 562.914062 L 354.640625 564.789062 L 348.441406 566.472656 L 346.988281 566.851562 C 341.9375 568.269531 336.8125 569.570312 331.800781 571.175781 L 316.730469 575.917969 C 311.757812 577.640625 306.820312 579.515625 301.847656 581.273438 C 296.835938 582.996094 291.980469 584.984375 287.082031 586.976562 C 282.1875 588.964844 277.25 590.800781 272.46875 593.132812 L 258.085938 599.789062 L 244.007812 607.058594 C 239.265625 609.390625 234.828125 612.300781 230.238281 614.9375 L 223.429688 618.992188 C 223.390625 619.03125 223.351562 619.03125 223.3125 619.070312 C 217 615.167969 210.84375 610.921875 204.875 606.445312 Z M 289.035156 649.75 L 294.617188 645.503906 L 295.039062 645.199219 C 302.957031 639.421875 311.222656 633.492188 319.636719 627.90625 C 327.785156 622.476562 336.582031 616.738281 345.496094 611.496094 C 349.742188 608.894531 354.332031 606.179688 358.886719 603.691406 L 359.726562 603.269531 C 363.898438 600.9375 368.144531 598.488281 372.542969 596.269531 C 373.804688 595.621094 375.105469 595.007812 376.367188 594.359375 C 373.230469 595.046875 370.054688 595.734375 366.878906 596.460938 L 359.613281 598.03125 L 352.421875 599.828125 C 350.660156 600.25 348.9375 600.671875 347.179688 601.050781 C 343.964844 601.816406 340.945312 602.582031 337.808594 603.460938 L 323.234375 607.480469 C 319.941406 608.398438 316.652344 609.390625 313.402344 610.425781 L 308.621094 611.878906 C 304.871094 612.949219 301.082031 614.210938 297.144531 615.589844 L 291.023438 617.730469 C 287.464844 618.917969 284.175781 620.066406 280.695312 621.480469 L 266.65625 626.796875 L 252.691406 632.839844 C 251.773438 633.222656 250.894531 633.605469 249.976562 634.027344 C 245.960938 632.078125 242.019531 630.011719 238.117188 627.867188 C 242.476562 625.804688 246.6875 623.585938 251.125 621.746094 L 265.164062 615.703125 L 279.394531 610.273438 C 284.097656 608.359375 288.957031 606.789062 293.777344 605.109375 C 298.558594 603.460938 303.339844 601.742188 308.273438 600.363281 C 313.132812 598.832031 317.992188 597.34375 322.886719 595.964844 L 337.617188 591.871094 C 342.511719 590.496094 347.523438 589.386719 352.457031 588.199219 L 359.878906 586.324219 L 367.339844 584.679688 C 377.324219 582.421875 387.269531 580.433594 397.332031 578.445312 C 407.390625 576.644531 417.414062 574.808594 427.511719 573.203125 C 432.5625 572.324219 437.613281 571.558594 442.660156 570.871094 C 447.75 570.144531 452.761719 569.378906 457.925781 568.765625 C 468.0625 567.503906 478.238281 566.355469 488.453125 565.285156 L 503.753906 563.871094 L 506.429688 563.714844 C 502.414062 564.558594 498.4375 565.628906 494.382812 566.507812 L 487.074219 568.230469 L 479.804688 570.144531 C 474.988281 571.445312 470.050781 572.628906 465.230469 574.082031 L 450.773438 578.445312 C 445.988281 579.9375 441.285156 581.65625 436.503906 583.265625 C 431.722656 584.792969 427.015625 586.628906 422.347656 588.46875 C 417.644531 590.339844 412.898438 592.101562 408.308594 594.167969 C 403.679688 596.15625 399.089844 598.183594 394.460938 600.289062 C 389.984375 602.507812 385.394531 604.726562 380.957031 607.019531 C 376.480469 609.277344 372.042969 611.765625 367.683594 614.210938 C 363.285156 616.621094 358.960938 619.183594 354.675781 621.785156 C 345.992188 626.875 337.578125 632.382812 329.199219 637.890625 C 321.167969 643.246094 313.363281 648.871094 305.636719 654.53125 C 300.050781 653.117188 294.503906 651.507812 289.035156 649.75 Z M 328.742188 659.351562 L 338.953125 653.039062 C 343.046875 650.363281 347.371094 647.953125 351.503906 645.425781 C 355.710938 642.824219 359.917969 640.453125 364.203125 637.96875 C 372.65625 632.996094 381.265625 628.328125 389.757812 623.546875 C 394.078125 621.25 398.363281 618.839844 402.6875 616.507812 L 415.65625 609.621094 C 419.9375 607.210938 424.375 605.109375 428.738281 602.890625 C 433.097656 600.707031 437.460938 598.414062 441.972656 596.386719 C 446.410156 594.320312 450.808594 592.101562 455.246094 590.113281 L 468.828125 584.296875 C 473.339844 582.347656 478.007812 580.816406 482.597656 579.054688 L 489.523438 576.492188 L 496.523438 574.273438 C 501.265625 572.859375 505.933594 571.253906 510.714844 570.105469 L 525.097656 566.625 C 534.738281 564.824219 544.417969 562.914062 554.25 562.148438 L 561.554688 561.421875 L 565.226562 561.039062 L 568.898438 560.960938 L 583.628906 560.542969 C 587.148438 560.542969 590.628906 560.769531 594.109375 560.960938 C 591.085938 561.421875 588.101562 561.957031 585.15625 562.453125 C 575.746094 564.214844 566.375 566.125 557.042969 568.230469 L 543.117188 571.519531 L 529.230469 575.117188 C 520.011719 577.640625 510.753906 580.203125 501.609375 583.074219 C 497.058594 584.488281 492.507812 586.019531 487.917969 587.511719 C 483.402344 588.964844 478.851562 590.570312 474.335938 592.214844 C 465.269531 595.351562 456.316406 598.949219 447.480469 602.582031 L 434.207031 608.359375 C 429.808594 610.347656 425.523438 612.527344 421.199219 614.632812 C 416.878906 616.621094 412.59375 618.917969 408.308594 621.175781 C 404.0625 623.507812 399.742188 625.6875 395.648438 628.175781 L 383.175781 635.480469 L 370.972656 643.363281 C 366.878906 645.925781 363.015625 648.832031 359.039062 651.585938 C 355.058594 654.378906 351.121094 657.132812 347.371094 660.195312 C 346.71875 660.691406 346.070312 661.226562 345.457031 661.722656 C 339.835938 661.035156 334.289062 660.308594 328.742188 659.351562 Z M 562.550781 520.871094 C 563.925781 521.292969 565.34375 521.789062 566.679688 522.25 C 568.058594 522.707031 569.4375 523.207031 570.734375 523.78125 C 572.074219 524.277344 573.414062 524.8125 574.675781 525.425781 L 576.589844 526.304688 C 577.164062 526.609375 577.773438 526.917969 578.425781 527.222656 C 579.6875 527.871094 580.835938 528.523438 581.984375 529.171875 C 582.519531 529.480469 583.015625 529.824219 583.511719 530.167969 C 584.164062 530.589844 584.738281 531.046875 585.234375 531.546875 C 585.617188 531.925781 586 532.308594 586.304688 532.730469 C 586.613281 533.191406 586.917969 533.6875 587.03125 534.183594 L 585.65625 534.757812 C 584.851562 534.527344 584.203125 534.300781 583.550781 533.992188 L 581.753906 533.191406 C 581.140625 532.960938 580.644531 532.617188 580.03125 532.347656 C 579.457031 532.042969 578.921875 531.773438 578.425781 531.46875 C 577.277344 530.894531 576.167969 530.359375 574.945312 529.824219 C 574.292969 529.554688 573.757812 529.25 573.144531 529.019531 L 571.273438 528.292969 C 570.007812 527.835938 568.785156 527.335938 567.484375 526.878906 C 566.222656 526.417969 564.882812 525.960938 563.582031 525.578125 C 562.28125 525.15625 560.90625 524.734375 559.605469 524.351562 L 558.226562 523.972656 C 557.730469 524.007812 557.234375 524.046875 556.773438 524.085938 C 554.859375 525.042969 552.949219 526 550.996094 526.917969 C 549.773438 527.488281 548.585938 528.0625 547.363281 528.636719 C 548.742188 527.261719 549.925781 525.84375 551.035156 524.429688 C 552.105469 523.128906 553.140625 521.828125 554.097656 520.488281 C 554.324219 520.296875 554.707031 519.992188 554.9375 519.800781 L 555.777344 519.417969 C 556.085938 519.265625 556.542969 519.226562 556.925781 519.304688 L 558.074219 519.648438 C 558.914062 519.839844 559.605469 520.03125 560.332031 520.261719 Z M 561.554688 508.898438 C 562.816406 506.71875 563.925781 504.5 564.960938 502.28125 C 565 502.128906 565.113281 502.011719 565.304688 501.898438 C 566.03125 501.59375 566.757812 501.210938 567.445312 500.863281 L 568.515625 500.328125 C 568.863281 500.175781 569.28125 500.175781 569.664062 500.214844 L 570.851562 500.558594 C 571.617188 500.75 572.304688 500.980469 573.070312 501.171875 L 575.210938 501.820312 C 576.628906 502.242188 578.003906 502.738281 579.382812 503.199219 C 580.757812 503.65625 582.097656 504.15625 583.398438 504.730469 C 584.738281 505.226562 586.039062 505.761719 587.339844 506.375 L 589.25 507.253906 C 589.902344 507.558594 590.476562 507.828125 591.085938 508.171875 C 592.351562 508.785156 593.496094 509.472656 594.644531 510.121094 C 594.683594 510.121094 594.683594 510.160156 594.683594 510.160156 C 595.105469 510.429688 595.601562 510.734375 596.058594 511.003906 C 596.789062 511.460938 597.398438 511.996094 597.933594 512.53125 C 598.316406 512.914062 598.699219 513.257812 598.96875 513.679688 C 599.273438 514.140625 599.542969 514.636719 599.695312 515.132812 L 598.316406 515.707031 C 597.515625 515.476562 596.863281 515.25 596.214844 514.941406 L 594.414062 514.140625 C 593.839844 513.871094 593.304688 513.566406 592.730469 513.296875 C 592.160156 512.992188 591.621094 512.6875 591.085938 512.417969 C 589.941406 511.84375 588.832031 511.308594 587.605469 510.773438 C 586.996094 510.503906 586.421875 510.199219 585.808594 509.96875 L 583.933594 509.203125 C 582.671875 508.746094 581.449219 508.285156 580.148438 507.828125 C 578.882812 507.367188 577.546875 506.910156 576.246094 506.527344 C 574.945312 506.105469 573.605469 505.683594 572.265625 505.300781 L 570.890625 504.921875 C 570.429688 504.957031 569.894531 504.996094 569.4375 505.035156 C 567.523438 505.992188 565.609375 506.910156 563.660156 507.828125 C 563.007812 508.25 562.242188 508.59375 561.554688 508.898438 Z M 470.664062 647.261719 L 549.660156 601.625 L 548.664062 601.933594 L 535.429688 605.910156 C 525.097656 609.199219 516.796875 611.953125 508.957031 614.632812 C 505.933594 615.628906 502.988281 616.738281 499.773438 617.921875 L 496.140625 619.222656 C 491.78125 620.753906 487.496094 622.4375 483.363281 624.121094 C 476.019531 626.875 468.675781 629.933594 461.484375 632.878906 L 458 634.332031 L 445.453125 639.804688 L 432.714844 645.582031 C 428.621094 647.417969 424.566406 649.480469 420.628906 651.507812 L 417.683594 652.886719 C 414.507812 654.417969 411.523438 655.910156 408.578125 657.4375 L 399.585938 662.257812 C 392.011719 662.871094 384.324219 663.214844 376.597656 663.214844 C 378.242188 662.183594 379.925781 661.148438 381.644531 660.191406 L 393.695312 653.382812 L 405.9375 646.84375 C 409.992188 644.625 414.199219 642.671875 418.371094 640.605469 C 422.464844 638.503906 426.632812 636.4375 430.804688 634.5625 L 443.464844 628.785156 L 456.242188 623.203125 C 464.8125 619.644531 473.378906 616.046875 482.0625 612.757812 C 486.386719 611.035156 490.707031 609.390625 495.109375 607.785156 C 499.46875 606.21875 503.828125 604.535156 508.265625 603.078125 C 517.027344 600.058594 525.902344 597.152344 534.816406 594.320312 L 548.167969 590.304688 L 561.632812 586.476562 C 566.070312 585.292969 570.46875 584.066406 574.90625 582.921875 C 545.527344 611.417969 510.027344 633.53125 470.664062 647.261719 Z M 609.027344 543.902344 C 605.433594 543.097656 601.796875 542.332031 598.125 541.566406 C 600.460938 540.609375 602.640625 539.578125 604.707031 538.355469 C 603.40625 538.621094 602.144531 538.929688 600.878906 539.273438 L 598.816406 539.808594 C 598.125 539.960938 597.476562 540.191406 596.824219 540.382812 C 596.175781 540.574219 595.5625 540.765625 594.949219 540.957031 C 592.808594 540.496094 590.628906 540.074219 588.449219 539.65625 C 588.984375 539.425781 589.519531 539.15625 590.054688 538.929688 C 591.394531 538.429688 592.769531 537.855469 594.148438 537.398438 C 594.835938 537.167969 595.523438 536.902344 596.289062 536.671875 L 598.394531 536.019531 C 599.847656 535.636719 601.261719 535.21875 602.753906 534.835938 C 604.132812 534.492188 605.546875 534.144531 606.925781 533.839844 C 608.453125 533.496094 609.945312 533.191406 611.476562 532.921875 L 611.859375 532.84375 C 612.128906 532.808594 612.355469 532.691406 612.507812 532.578125 C 615.875 529.402344 618.898438 525.425781 621.574219 520.183594 C 621.804688 519.6875 621.078125 519.226562 620.199219 519.378906 C 619.511719 519.496094 618.785156 519.609375 618.09375 519.761719 C 616.71875 520.070312 615.265625 520.335938 613.847656 520.644531 C 612.472656 520.949219 611.054688 521.292969 609.679688 521.636719 L 607.613281 522.171875 C 606.925781 522.324219 606.3125 522.554688 605.585938 522.746094 C 604.246094 523.128906 603.023438 523.589844 601.683594 524.007812 C 601.035156 524.238281 600.421875 524.46875 599.808594 524.699219 C 599.160156 524.925781 598.546875 525.15625 597.898438 525.347656 L 595.867188 525.960938 C 595.140625 526.152344 594.453125 526.34375 593.613281 526.457031 L 592.425781 525.730469 C 592.730469 525.234375 593.152344 524.8125 593.613281 524.390625 C 594.03125 523.972656 594.605469 523.625 595.140625 523.242188 C 595.679688 522.863281 596.25 522.515625 596.941406 522.210938 C 597.589844 521.90625 598.203125 521.636719 598.851562 521.371094 C 598.890625 521.371094 598.890625 521.332031 598.890625 521.332031 C 600.230469 520.832031 601.570312 520.261719 602.945312 519.800781 C 603.671875 519.570312 604.363281 519.304688 605.050781 519.074219 L 607.191406 518.425781 C 608.609375 518.042969 610.0625 517.621094 611.554688 517.238281 C 613.007812 516.855469 614.5 516.511719 615.992188 516.207031 C 617.519531 515.859375 619.011719 515.554688 620.542969 515.289062 L 622.800781 514.867188 L 624.0625 514.675781 C 625.976562 509.929688 627.734375 504.308594 629.304688 497.652344 C 628.039062 497 627.695312 496.847656 626.511719 496.238281 C 625.402344 496.464844 624.328125 496.695312 623.21875 496.925781 C 621.804688 497.230469 620.429688 497.574219 619.050781 497.917969 L 616.984375 498.457031 C 616.257812 498.609375 615.683594 498.839844 614.957031 499.027344 C 613.617188 499.410156 612.394531 499.832031 611.054688 500.292969 C 610.445312 500.519531 609.792969 500.789062 609.179688 501.019531 C 608.53125 501.210938 607.917969 501.4375 607.269531 501.667969 L 605.242188 502.242188 C 604.550781 502.433594 603.789062 502.625 602.984375 502.738281 L 601.761719 502.011719 C 602.066406 501.515625 602.488281 501.09375 602.945312 500.675781 C 603.328125 500.253906 603.941406 499.871094 604.476562 499.488281 C 605.011719 499.144531 605.625 498.761719 606.273438 498.492188 C 606.925781 498.1875 607.574219 497.917969 608.226562 497.652344 C 609.5625 497.15625 610.902344 496.621094 612.316406 496.121094 C 613.046875 495.890625 613.734375 495.625 614.421875 495.394531 L 616.5625 494.746094 C 617.980469 494.324219 619.433594 493.902344 620.925781 493.558594 C 622.378906 493.175781 623.871094 492.832031 625.363281 492.527344 C 626.855469 492.183594 628.386719 491.875 629.914062 491.609375 C 630.335938 491.570312 630.640625 491.300781 630.679688 491.074219 C 631.941406 484.796875 633.011719 477.722656 634.007812 469.726562 L 634.007812 469.648438 C 633.359375 469.765625 632.746094 469.878906 632.09375 469.996094 C 630.679688 470.300781 629.265625 470.566406 627.847656 470.914062 C 626.472656 471.179688 625.09375 471.5625 623.679688 471.867188 L 621.652344 472.40625 C 620.925781 472.558594 620.3125 472.785156 619.664062 472.976562 C 618.285156 473.359375 617.0625 473.78125 615.761719 474.203125 C 615.109375 474.433594 614.5 474.699219 613.847656 474.890625 C 613.199219 475.121094 612.585938 475.351562 611.972656 475.578125 L 609.90625 476.152344 C 609.21875 476.34375 608.492188 476.535156 607.652344 476.6875 L 606.464844 475.960938 C 606.769531 475.464844 607.191406 475.042969 607.652344 474.585938 C 608.109375 474.164062 608.644531 473.820312 609.179688 473.4375 C 609.753906 473.054688 610.328125 472.710938 610.980469 472.40625 C 611.628906 472.136719 612.28125 471.867188 612.890625 471.5625 C 612.929688 471.5625 612.929688 471.523438 612.929688 471.523438 C 614.269531 471.027344 615.644531 470.453125 617.023438 469.996094 C 617.75 469.765625 618.402344 469.535156 619.128906 469.304688 L 621.269531 468.617188 C 622.722656 468.234375 624.136719 467.8125 625.628906 467.429688 C 627.085938 467.050781 628.574219 466.703125 630.066406 466.398438 C 631.292969 466.132812 632.515625 465.902344 633.742188 465.632812 C 634.199219 465.59375 634.46875 465.328125 634.503906 465.058594 C 635.078125 457.714844 634.964844 450.867188 634.121094 444.515625 C 634.085938 444.097656 633.394531 443.789062 632.746094 443.90625 C 632.132812 444.019531 631.484375 444.058594 630.871094 444.136719 C 629.417969 444.363281 627.964844 444.554688 626.585938 444.824219 C 625.132812 445.054688 623.71875 445.359375 622.300781 445.625 L 620.160156 446.085938 C 619.472656 446.199219 618.78125 446.390625 618.09375 446.542969 C 616.71875 446.851562 615.417969 447.273438 614 447.578125 C 613.351562 447.769531 612.699219 448 612.050781 448.191406 C 611.363281 448.34375 610.75 448.574219 610.0625 448.761719 L 608.953125 449.03125 C 608.226562 461.425781 607.804688 475.234375 599.617188 483.917969 C 600.304688 484.226562 600.996094 484.570312 601.683594 484.875 C 602.296875 485.179688 602.90625 485.527344 603.480469 485.871094 C 604.09375 486.175781 604.589844 486.597656 605.125 486.980469 C 605.625 487.363281 606.121094 487.746094 606.464844 488.242188 C 606.847656 488.664062 607.191406 489.160156 607.382812 489.65625 L 606.082031 490.308594 C 605.242188 490.15625 604.550781 489.925781 603.902344 489.65625 L 601.953125 488.96875 C 601.378906 488.738281 600.804688 488.433594 600.152344 488.203125 C 599.542969 487.972656 598.96875 487.707031 598.394531 487.4375 C 597.78125 487.207031 597.207031 486.941406 596.597656 486.671875 C 594.949219 487.9375 593 489.007812 590.820312 489.925781 C 588.371094 490.917969 585.769531 491.644531 583.128906 492.296875 C 577.085938 495.703125 569.816406 497.117188 563.125 497.957031 C 561.859375 498.109375 560.597656 498.265625 559.296875 498.378906 C 558.339844 501.285156 557.230469 504.039062 556.007812 506.679688 C 555.320312 508.132812 554.59375 509.511719 553.828125 510.886719 C 550.269531 517.199219 545.910156 522.289062 541.050781 525.882812 C 537.953125 528.140625 534.664062 529.785156 531.179688 530.664062 C 529.191406 531.164062 527.164062 531.429688 525.097656 531.429688 C 520.890625 531.429688 516.835938 530.359375 513.050781 528.332031 C 503.066406 523.089844 494.800781 511.421875 490.210938 496.351562 C 488.335938 496.3125 486.460938 496.121094 484.625 495.855469 C 487.226562 507.714844 491.472656 518.195312 496.945312 526.457031 C 485.199219 525.15625 473.457031 524.007812 461.75 523.015625 C 461.902344 522.441406 462.019531 521.828125 462.171875 521.253906 C 460.910156 520.644531 460.5625 520.453125 459.378906 519.839844 C 458.269531 520.070312 457.199219 520.261719 456.089844 520.527344 C 454.710938 520.835938 453.335938 521.179688 451.917969 521.523438 L 449.929688 522.019531 C 446.871094 521.789062 443.847656 521.523438 440.824219 521.292969 C 440.941406 521.253906 441.015625 521.214844 441.132812 521.179688 C 442.46875 520.679688 443.847656 520.144531 445.222656 519.648438 C 445.953125 519.417969 446.601562 519.152344 447.289062 518.921875 L 449.433594 518.269531 C 450.886719 517.851562 452.300781 517.429688 453.792969 517.085938 C 455.246094 516.703125 456.738281 516.359375 458.230469 516.050781 C 459.722656 515.707031 461.253906 515.402344 462.78125 515.132812 C 463.242188 515.097656 463.546875 514.867188 463.585938 514.597656 C 464.8125 508.324219 465.921875 501.246094 466.914062 493.253906 L 466.914062 493.175781 C 466.265625 493.328125 465.652344 493.40625 465 493.558594 C 463.625 493.828125 462.171875 494.09375 460.753906 494.4375 C 459.339844 494.746094 457.964844 495.089844 456.585938 495.433594 L 454.558594 495.929688 C 453.832031 496.121094 453.179688 496.3125 452.53125 496.503906 C 451.152344 496.886719 449.929688 497.308594 448.628906 497.730469 C 447.980469 497.957031 447.367188 498.226562 446.714844 498.457031 C 446.066406 498.683594 445.453125 498.914062 444.804688 499.105469 L 442.738281 499.679688 C 442.050781 499.871094 441.285156 500.0625 440.480469 500.214844 L 439.257812 499.488281 C 439.5625 498.992188 440.023438 498.570312 440.441406 498.109375 C 440.863281 497.691406 441.4375 497.347656 441.972656 496.964844 C 442.546875 496.582031 443.121094 496.238281 443.769531 495.929688 C 444.421875 495.664062 445.070312 495.394531 445.683594 495.089844 C 445.722656 495.089844 445.722656 495.050781 445.722656 495.050781 C 447.0625 494.554688 448.398438 494.019531 449.777344 493.519531 C 450.503906 493.292969 451.191406 493.023438 451.917969 492.832031 L 454.0625 492.105469 C 455.515625 491.722656 456.929688 491.300781 458.421875 490.957031 C 459.875 490.574219 461.367188 490.230469 462.859375 489.886719 C 464.046875 489.617188 465.308594 489.390625 466.53125 489.121094 C 466.953125 489.082031 467.257812 488.816406 467.296875 488.546875 C 467.910156 481.203125 467.71875 474.355469 466.914062 468.003906 C 466.875 467.585938 466.1875 467.316406 465.539062 467.394531 C 464.925781 467.507812 464.3125 467.546875 463.699219 467.621094 C 462.246094 467.851562 460.753906 468.042969 459.378906 468.3125 C 457.925781 468.539062 456.507812 468.847656 455.09375 469.113281 L 452.953125 469.535156 C 452.261719 469.648438 451.574219 469.839844 450.886719 469.996094 C 449.507812 470.300781 448.207031 470.722656 446.832031 471.027344 C 446.179688 471.21875 445.53125 471.449219 444.878906 471.640625 C 444.191406 471.792969 443.578125 472.023438 442.890625 472.214844 L 440.785156 472.710938 C 440.058594 472.863281 439.332031 473.015625 438.453125 473.09375 L 437.34375 472.328125 C 437.726562 471.867188 438.1875 471.449219 438.683594 471.027344 C 439.179688 470.605469 439.792969 470.300781 440.328125 469.957031 C 440.941406 469.574219 441.589844 469.304688 442.242188 469.039062 C 442.890625 468.769531 443.617188 468.539062 444.304688 468.273438 C 445.683594 467.8125 447.097656 467.316406 448.589844 466.972656 C 449.316406 466.742188 450.042969 466.550781 450.769531 466.359375 L 452.953125 465.785156 C 454.445312 465.441406 455.972656 465.097656 457.464844 464.792969 C 458.996094 464.484375 460.488281 464.21875 462.019531 463.949219 C 463.050781 463.796875 464.082031 463.605469 465.15625 463.453125 C 465.652344 463.339844 466.074219 463.070312 465.957031 462.726562 C 464.695312 456.148438 462.667969 450.101562 460.027344 444.632812 C 459.875 444.289062 459.300781 444.097656 458.726562 444.171875 C 458.269531 444.210938 457.808594 444.289062 457.351562 444.363281 C 455.898438 444.59375 454.445312 444.785156 452.988281 445.054688 C 451.574219 445.28125 450.160156 445.550781 448.742188 445.816406 L 446.601562 446.238281 C 445.914062 446.390625 445.222656 446.542969 444.535156 446.734375 C 443.121094 447.042969 441.78125 447.425781 440.441406 447.808594 C 439.792969 448 439.140625 448.226562 438.492188 448.382812 C 437.804688 448.535156 437.191406 448.761719 436.503906 448.953125 L 434.4375 449.453125 C 433.671875 449.605469 432.945312 449.757812 432.101562 449.835938 L 430.992188 449.070312 C 431.375 448.570312 431.835938 448.191406 432.332031 447.808594 C 432.832031 447.386719 433.441406 447.042969 434.015625 446.699219 C 434.628906 446.390625 435.277344 446.046875 435.929688 445.78125 C 436.617188 445.550781 437.304688 445.28125 437.996094 445.015625 C 437.996094 445.015625 438.03125 444.976562 438.03125 444.976562 C 439.449219 444.554688 440.824219 444.058594 442.277344 443.675781 C 443.042969 443.445312 443.734375 443.253906 444.496094 443.0625 L 446.679688 442.488281 C 448.132812 442.144531 449.660156 441.800781 451.191406 441.496094 C 452.683594 441.1875 454.214844 440.921875 455.746094 440.652344 C 456.394531 440.539062 457.082031 440.425781 457.734375 440.347656 C 454.558594 434.761719 450.734375 429.828125 446.449219 425.582031 C 446.21875 425.582031 446.027344 425.621094 445.835938 425.621094 C 444.34375 425.734375 442.851562 425.847656 441.359375 426.003906 L 439.21875 426.230469 C 438.453125 426.269531 437.765625 426.386719 437.039062 426.5 C 435.585938 426.652344 434.207031 426.921875 432.753906 427.148438 C 432.066406 427.265625 431.375 427.417969 430.648438 427.53125 C 429.921875 427.648438 429.273438 427.761719 428.546875 427.914062 L 426.328125 428.183594 C 425.5625 428.257812 424.796875 428.335938 423.917969 428.335938 L 423.039062 427.457031 C 423.535156 427.035156 424.109375 426.691406 424.683594 426.308594 C 425.292969 425.925781 425.984375 425.695312 426.632812 425.390625 C 427.320312 425.121094 428.046875 424.855469 428.773438 424.664062 C 429.503906 424.472656 430.304688 424.28125 431.03125 424.128906 C 432.5625 423.820312 434.09375 423.476562 435.621094 423.246094 C 436.386719 423.09375 437.152344 422.941406 437.957031 422.828125 L 440.289062 422.519531 C 441.132812 422.40625 441.933594 422.328125 442.777344 422.214844 C 438.875 418.886719 434.703125 416.054688 430.304688 413.722656 C 429.539062 413.300781 428.773438 412.957031 427.972656 412.535156 L 427.933594 412.535156 C 426.402344 412.5 424.988281 412.5 423.496094 412.5 C 422.730469 412.535156 422.042969 412.535156 421.316406 412.535156 C 420.589844 412.535156 419.863281 412.574219 419.136719 412.574219 L 416.878906 412.5 C 416.113281 412.460938 415.273438 412.421875 414.46875 412.308594 L 413.972656 411.3125 C 414.621094 410.96875 415.386719 410.699219 416.113281 410.472656 C 416.226562 410.433594 416.34375 410.394531 416.457031 410.355469 C 407.964844 410.164062 399.511719 410.089844 392.28125 410.089844 C 387.347656 410.125 382.984375 410.125 379.464844 410.203125 C 376.558594 410.203125 373.917969 410.242188 371.507812 410.316406 C 369.632812 410.355469 367.875 410.394531 366.304688 410.433594 C 366.113281 410.472656 365.925781 410.472656 365.769531 410.507812 C 363.167969 411.425781 360.605469 412.421875 358.195312 413.492188 C 353.949219 415.40625 350.046875 417.511719 346.453125 419.882812 C 343.199219 422.023438 340.21875 424.320312 337.617188 426.691406 C 325.261719 437.9375 320.59375 452.742188 317.609375 465.902344 C 315.582031 474.851562 314.664062 483.957031 314.664062 492.984375 C 314.664062 500.902344 315.390625 508.554688 316.730469 515.746094 C 289.492188 515.25 264.628906 515.289062 243.472656 515.515625 C 248.253906 513.71875 252.691406 511.84375 256.824219 509.472656 C 255.253906 509.777344 253.800781 510.199219 252.269531 510.542969 L 249.824219 511.195312 C 249.019531 511.421875 248.214844 511.652344 247.449219 511.882812 C 245.84375 512.304688 244.351562 512.878906 242.824219 513.335938 C 242.09375 513.640625 241.367188 513.871094 240.605469 514.140625 C 239.839844 514.371094 239.113281 514.675781 238.347656 514.90625 L 235.976562 515.59375 C 235.9375 515.59375 235.9375 515.59375 235.9375 515.59375 C 234.675781 515.632812 233.488281 515.632812 232.300781 515.632812 L 231.84375 515.363281 C 232.226562 514.789062 232.683594 514.253906 233.257812 513.71875 C 233.757812 513.222656 234.367188 512.800781 235.058594 512.339844 C 235.746094 511.921875 236.433594 511.5 237.160156 511.195312 C 237.925781 510.8125 238.730469 510.46875 239.496094 510.160156 C 241.101562 509.585938 242.707031 508.898438 244.351562 508.363281 C 245.15625 508.132812 245.996094 507.789062 246.878906 507.523438 L 249.363281 506.757812 C 251.085938 506.296875 252.769531 505.761719 254.527344 505.378906 C 256.171875 504.957031 257.816406 504.578125 259.5 504.195312 C 261.300781 503.773438 263.097656 503.429688 264.894531 503.085938 L 265.355469 502.96875 C 265.660156 502.894531 265.929688 502.816406 266.082031 502.664062 C 270.058594 498.875 273.65625 494.171875 276.832031 487.972656 C 277.136719 487.398438 276.21875 486.789062 275.222656 486.980469 C 274.382812 487.09375 273.578125 487.285156 272.738281 487.398438 C 271.09375 487.746094 269.371094 488.050781 267.726562 488.433594 C 266.082031 488.777344 264.4375 489.199219 262.828125 489.582031 L 260.382812 490.230469 C 259.578125 490.460938 258.8125 490.691406 258.007812 490.917969 C 256.402344 491.339844 254.949219 491.875 253.378906 492.375 C 252.652344 492.640625 251.925781 492.910156 251.199219 493.175781 C 250.433594 493.445312 249.667969 493.75 248.90625 493.941406 L 246.496094 494.667969 C 245.652344 494.898438 244.773438 495.128906 243.777344 495.28125 L 242.402344 494.402344 C 242.746094 493.828125 243.242188 493.328125 243.777344 492.792969 C 244.277344 492.296875 244.964844 491.875 245.613281 491.417969 C 246.265625 490.996094 246.914062 490.574219 247.71875 490.230469 C 248.484375 489.886719 249.25 489.582031 250.015625 489.238281 C 250.050781 489.238281 250.050781 489.199219 250.050781 489.199219 C 251.660156 488.625 253.226562 487.9375 254.871094 487.398438 C 255.714844 487.132812 256.515625 486.828125 257.359375 486.558594 L 259.882812 485.792969 C 261.566406 485.296875 263.289062 484.800781 265.007812 484.417969 C 266.769531 483.957031 268.527344 483.574219 270.289062 483.152344 C 272.085938 482.734375 273.847656 482.425781 275.683594 482.082031 L 278.398438 481.585938 L 279.851562 481.355469 C 282.109375 475.695312 284.214844 469.078125 286.085938 461.15625 C 284.632812 460.429688 284.175781 460.203125 282.757812 459.476562 C 281.457031 459.742188 280.160156 459.972656 278.859375 460.277344 C 277.210938 460.621094 275.566406 461.042969 273.960938 461.425781 L 271.511719 462.074219 C 270.671875 462.265625 269.945312 462.496094 269.101562 462.726562 C 267.496094 463.148438 266.042969 463.722656 264.472656 464.179688 C 263.746094 464.484375 263.019531 464.753906 262.292969 465.019531 C 261.527344 465.25 260.761719 465.558594 260 465.785156 L 257.589844 466.511719 C 256.746094 466.742188 255.867188 466.933594 254.910156 467.125 L 253.496094 466.246094 C 253.839844 465.671875 254.335938 465.136719 254.871094 464.640625 C 255.371094 464.140625 256.058594 463.722656 256.707031 463.261719 C 257.359375 462.839844 258.085938 462.421875 258.8125 462.074219 C 259.578125 461.695312 260.34375 461.386719 261.144531 461.042969 C 262.753906 460.46875 264.320312 459.78125 265.964844 459.246094 C 266.808594 458.976562 267.609375 458.671875 268.453125 458.402344 L 270.976562 457.636719 C 272.660156 457.140625 274.382812 456.644531 276.140625 456.222656 C 277.863281 455.800781 279.621094 455.382812 281.421875 455 C 283.179688 454.578125 284.976562 454.234375 286.8125 453.890625 C 287.3125 453.8125 287.695312 453.546875 287.734375 453.238281 C 289.1875 445.816406 290.523438 437.441406 291.671875 427.953125 L 291.671875 427.875 C 290.945312 428.03125 290.179688 428.144531 289.414062 428.296875 C 287.769531 428.640625 286.050781 428.949219 284.40625 429.332031 C 282.757812 429.675781 281.113281 430.09375 279.507812 430.476562 L 277.097656 431.128906 C 276.257812 431.320312 275.492188 431.550781 274.726562 431.777344 C 273.082031 432.238281 271.628906 432.773438 270.097656 433.234375 C 269.371094 433.539062 268.605469 433.804688 267.839844 434.074219 C 267.074219 434.304688 266.347656 434.609375 265.582031 434.839844 L 263.171875 435.527344 C 262.332031 435.757812 261.453125 435.949219 260.496094 436.140625 L 259.082031 435.296875 C 259.425781 434.722656 259.960938 434.1875 260.457031 433.691406 C 260.953125 433.195312 261.644531 432.773438 262.292969 432.3125 C 262.980469 431.894531 263.671875 431.472656 264.398438 431.128906 C 265.164062 430.824219 265.925781 430.476562 266.65625 430.132812 C 266.691406 430.132812 266.730469 430.09375 266.730469 430.09375 C 268.335938 429.484375 269.945312 428.832031 271.550781 428.296875 C 272.394531 428.03125 273.195312 427.722656 274.074219 427.496094 L 276.601562 426.652344 C 278.320312 426.195312 280.003906 425.695312 281.765625 425.277344 C 283.484375 424.816406 285.246094 424.394531 287.042969 424.011719 C 288.460938 423.707031 289.914062 423.402344 291.40625 423.132812 C 291.902344 423.058594 292.285156 422.75 292.324219 422.40625 C 293.050781 413.722656 292.859375 405.613281 291.902344 398.039062 C 291.824219 397.578125 291.0625 397.234375 290.257812 397.3125 C 289.53125 397.425781 288.804688 397.542969 288.078125 397.617188 C 286.355469 397.886719 284.632812 398.152344 282.949219 398.421875 C 281.230469 398.726562 279.546875 399.070312 277.863281 399.378906 L 275.339844 399.875 C 274.535156 400.027344 273.691406 400.257812 272.890625 400.449219 C 271.246094 400.832031 269.675781 401.289062 268.070312 401.710938 C 267.304688 401.941406 266.539062 402.207031 265.738281 402.4375 C 264.933594 402.667969 264.167969 402.933594 263.363281 403.125 L 260.878906 403.699219 C 260.035156 403.855469 259.117188 404.082031 258.085938 404.160156 L 256.785156 403.242188 C 257.242188 402.707031 257.78125 402.207031 258.390625 401.710938 C 258.964844 401.214844 259.691406 400.832031 260.378906 400.449219 C 261.109375 400.027344 261.835938 399.683594 262.636719 399.339844 C 263.402344 399.035156 264.246094 398.726562 265.085938 398.421875 C 266.730469 397.886719 268.414062 397.3125 270.175781 396.851562 C 271.015625 396.585938 271.855469 396.355469 272.738281 396.125 L 275.339844 395.476562 C 277.097656 395.054688 278.894531 394.671875 280.65625 394.289062 C 282.453125 393.90625 284.25 393.601562 286.085938 393.296875 C 287.273438 393.105469 288.535156 392.914062 289.761719 392.722656 C 290.410156 392.605469 290.832031 392.222656 290.753906 391.839844 C 289.261719 384.039062 286.851562 376.847656 283.714844 370.417969 C 283.523438 370 282.835938 369.769531 282.1875 369.84375 C 281.613281 369.882812 281.078125 370 280.539062 370.074219 C 278.820312 370.34375 277.097656 370.574219 275.375 370.878906 C 273.691406 371.144531 272.011719 371.492188 270.328125 371.796875 L 267.800781 372.292969 C 267 372.445312 266.15625 372.675781 265.355469 372.867188 C 263.707031 373.25 262.140625 373.671875 260.535156 374.128906 C 259.769531 374.359375 259.003906 374.628906 258.199219 374.855469 C 257.398438 375.046875 256.632812 375.316406 255.828125 375.546875 L 253.34375 376.121094 C 252.460938 376.3125 251.582031 376.5 250.550781 376.617188 L 249.25 375.699219 C 249.667969 375.125 250.242188 374.664062 250.855469 374.167969 C 251.429688 373.671875 252.15625 373.289062 252.84375 372.867188 C 253.570312 372.484375 254.296875 372.101562 255.101562 371.796875 C 255.90625 371.492188 256.707031 371.222656 257.550781 370.878906 C 257.550781 370.878906 257.589844 370.839844 257.589844 370.839844 C 259.234375 370.304688 260.917969 369.730469 262.636719 369.273438 C 263.519531 369.042969 264.359375 368.773438 265.238281 368.546875 L 267.839844 367.855469 C 269.601562 367.472656 271.398438 367.054688 273.15625 366.707031 C 274.917969 366.328125 276.753906 366.019531 278.589844 365.714844 C 279.355469 365.5625 280.195312 365.40625 280.960938 365.332031 C 277.175781 358.714844 272.660156 352.898438 267.574219 347.847656 C 267.304688 347.847656 267.074219 347.886719 266.847656 347.886719 C 265.085938 348.003906 263.328125 348.15625 261.566406 348.308594 L 259.003906 348.578125 C 258.125 348.652344 257.28125 348.804688 256.402344 348.882812 C 254.679688 349.113281 253.035156 349.378906 251.316406 349.648438 C 250.511719 349.800781 249.667969 349.953125 248.828125 350.105469 C 247.988281 350.222656 247.183594 350.414062 246.304688 350.527344 L 243.664062 350.871094 C 242.785156 350.949219 241.828125 351.023438 240.832031 351.023438 L 239.800781 349.992188 C 240.375 349.496094 241.0625 349.074219 241.789062 348.652344 C 242.515625 348.195312 243.320312 347.925781 244.085938 347.582031 C 244.925781 347.277344 245.730469 346.929688 246.609375 346.703125 C 247.488281 346.472656 248.40625 346.28125 249.289062 346.050781 C 251.085938 345.667969 252.921875 345.285156 254.71875 345.019531 C 255.636719 344.867188 256.554688 344.675781 257.472656 344.519531 L 260.265625 344.140625 C 261.261719 344.023438 262.21875 343.910156 263.210938 343.792969 C 258.621094 339.894531 253.648438 336.527344 248.40625 333.773438 C 247.488281 333.273438 246.609375 332.816406 245.652344 332.394531 L 245.613281 332.394531 C 243.816406 332.320312 242.09375 332.355469 240.335938 332.355469 C 239.457031 332.394531 238.613281 332.433594 237.734375 332.433594 C 236.894531 332.433594 236.011719 332.472656 235.132812 332.472656 L 232.457031 332.355469 C 231.539062 332.320312 230.582031 332.28125 229.625 332.128906 L 229.050781 330.980469 C 229.816406 330.597656 230.695312 330.253906 231.539062 329.984375 C 231.691406 329.945312 231.804688 329.871094 231.917969 329.871094 C 221.898438 329.640625 211.875 329.5625 203.304688 329.5625 C 197.453125 329.601562 192.25 329.601562 188.117188 329.71875 C 184.675781 329.753906 181.539062 329.792969 178.671875 329.832031 C 176.453125 329.871094 174.386719 329.910156 172.511719 329.945312 C 172.28125 329.984375 172.089844 329.984375 171.898438 330.0625 C 168.800781 331.09375 165.777344 332.320312 162.910156 333.582031 C 157.859375 335.835938 153.230469 338.363281 149.023438 341.117188 C 145.121094 343.640625 141.601562 346.359375 138.542969 349.1875 C 123.890625 362.5 118.382812 380.058594 114.863281 395.628906 C 112.453125 406.261719 111.382812 417.011719 111.382812 427.722656 C 111.382812 460.96875 122.054688 489.964844 137.890625 505.722656 C 145.925781 513.679688 155.257812 518.269531 165.242188 518.269531 L 166.390625 518.269531 L 149.789062 522.019531 L 131.386719 526.34375 L 130.929688 526.457031 C 103.960938 482.734375 88.429688 431.28125 88.429688 376.234375 C 88.429688 217.902344 217.230469 89.097656 375.5625 89.097656 C 533.898438 89.097656 662.699219 217.902344 662.699219 376.234375 C 663.273438 438.703125 643.152344 496.65625 609.027344 543.902344 Z M 609.027344 543.902344 " fill-opacity="1" fill-rule="nonzero"/></g><g clip-path="url(#b32a10611b)"><g clip-path="url(#df33e2c493)"><g clip-path="url(#16c6b06345)"><g clip-path="url(#2274fd341a)"><path fill="#ffe000" d="M 457.53125 110.691406 L 303.570312 153.269531 L 264.375 399.742188 L 338.617188 379.207031 L 310.453125 691.390625 L 461.144531 277.617188 L 386.898438 298.152344 L 457.53125 110.691406 " fill-opacity="1" fill-rule="nonzero"/></g></g></g></g><g clip-path="url(#91b0aeb59c)"><g clip-path="url(#e7616e6266)"><g clip-path="url(#ac35675aa7)"><g clip-path="url(#5f77691ca4)"><path fill="#ffb600" d="M 457.53125 110.691406 L 427.367188 119.03125 L 364.257812 319.890625 L 431.03125 301.421875 L 310.453125 691.390625 L 461.144531 277.617188 L 386.898438 298.152344 L 457.53125 110.691406 " fill-opacity="1" fill-rule="nonzero"/></g></g></g></g></svg>